<?xml version="1.0" encoding="UTF-8" standalone="no"?>
<svg xmlns:rdf="http://www.w3.org/1999/02/22-rdf-syntax-ns#" xmlns="http://www.w3.org/2000/svg" height="565" viewBox="0 0 557 565" width="557" version="1.1" xmlns:cc="http://creativecommons.org/ns#" xmlns:dc="http://purl.org/dc/elements/1.1/">
<g>
<path d="m306.3 3.3965c-0.43-0.0095-0.87-0.0085-1.31 0.0058-12.28 0.2517-23.15 8.4987-28.78 19.1-1.99 3.264-3.31 6.856-4.75 10.375 0.58-2.248-1.35-4.148-3.56-3.26-4.58 0.797-9.05 2.091-13.58 3.115 5.45-4.145 4.08-12.159 1.57-17.574-2.14-5.2513-7.83-8.4534-13.43-7.4314-8.54 1.2594-14.65 8.5194-18.92 15.49-3.63 6.011-5.47 12.984-5.38 19.992-1.94-0.048-4.89 0.075-7.1 0.74-10.23 1.912-20.62 8.717-23.17 19.317-0.67 5.026-0.27 10.388 3.03 14.498 1.74 2.067 3.14 5.591 6.1 5.937 1.35 1.252 4.67 3.003 4.8 0.727 2.41 1.36 1.06-4.262 0.87-5.709-0.4-2.375 0.33-6.098-2.14-7.407-1.35-0.239-2.19 2.132-2.51 2.268 0.55-2.986 2.25-7.174 5.16-7.902-1.91 2.27-2.09 4.818-0.24 7.261 4.18 7.034 1.54 16.246-4.34 21.588-4.18 4.068-9.07 7.733-14.68 9.433-1.64 1.42 0.58 3.21 2.04 3.42-5.43 0.73-11.2-0.3-16.48 1.3-1.61 2.12 0.3 5.07 0.02 7.52 0.47 3.43-0.3 1.46-1.13-0.7-2.12-7.65-13.11-9.26-18.14-3.6-1.85 1.95-2.89 4.49-3.69 7.02 0.29-2.75 1.46-7.04-2.15-8.15-10.16-4.07-23.19-1.32-29.67 7.72 0.01-0.16 0-0.33-0.06-0.48-0.9-2.93 0.54-5.8 1.78-8.37 0.35-0.36 0.86 0.91 1.28 1.22 0.83 1.18 2.39 2.2 3.81 1.33 1.6-0.98 3.68-1.97 4.14-3.95 0.15-2-2.06-2.91-3.56-3.6-1.12-0.51-2.37-0.41-3.57-0.42-3.82 0.01-7.16 3.29-7.89 6.94-0.37 2.9-0.01 6.29 2.22 8.39 0.36 0.27 0.74 0.27 1.07 0.13-0.15 0.23-0.29 0.47-0.43 0.71-2.61 5.86-2.07 13.43 2.43 18.26 6.18 7.38 16.37 10.92 25.8 8.97 7.74-0.93 15.1-5.67 22.97-3.74 4.81 0.5 9.72 2.78 14.63 2.16 2.15-2.24-1.01-5.32-1.38-7.74-1.31-3.31-1.45-7.45-0.19-10.89-0.21 0.79-0.32 1.59-0.33 2.37 0.29 4.23 3.09 7.74 5.06 11.34 4.02 6.81 8.68 13.25 12.3 20.25 0.47 0.68 0.43 1.81-0.71 1.63-2.09 0.13-4.15-0.05-6.21-0.34 1.36-0.01 2.71-0.04 4.04-0.08 1.49 0.16 2.59-1.29 1.43-2.5-2.01-3.04-4.09-6.17-6.88-8.55-0.35-0.24-0.75-0.44-1.19-0.4-3.08 0.5-5.18 3.37-6.52 5.98-0.65 1.2-0.98 3.06-0.11 4.14-0.99-0.1-1.97-0.18-2.96-0.19-0.99-0.08-1.96 0.82-2.76 0.71-0.82-1.15-2.54-0.73-2.93 0.57-2.02 5.56-2.5 11.56-3.17 17.4-0.15 2.8-0.8 6.58 1.95 8.38 2.67 1.32 5.83 1.02 8.7 0.81 1.61-0.45 2.9-1.96 2.48-3.7 0.09-1.08-0.05-3.95 0.22-3.94 4.21 11.36 12.08 22.07 23.57 26.8 3.54 1.68 7.66 1.55 11.39 1.57-1.39 1.03-3.07 1.36-4.7 1.72-1.89 0.76-1.03 3.04-0.58 4.46 3.21 10.12 7.77 20.31 15.97 27.37 5.98 5.29 13.64 8.46 21.53 9.42 1.74 0.16 1.39 0.32-0.05 0.62-1.4 0.05-2.2 1.85-0.91 2.67 5.36 3.95 12.5 3.58 18.7 2.34 7.12-1.51 13.72-4.91 19.51-9.27-0.78 1.35 0.76 2.87 2.08 2 4.64-2.67 8.34-6.67 12.25-10.28 3.19-3.22 6.6-6.32 9.41-9.86 0.04-0.16 0.05-0.29 0.05-0.41h0.14c1.4-0.52 2.08-2.11 3.16-3.11 4.89-5.5 9.34-11.44 12.64-18.06 6.63-12.94 12.57-26.43 16.78-40.29-1.6 10.58-4.08 21.15-7.94 31.15-0.21 0.77-0.98 1.78-0.76 2.55-1.03 0.6-1.15 2.15-1.82 3.1-1.61 3.54-3.49 7.01-4.49 10.78-0.07 3.57 1.15 7.02 2.03 10.45 2.75 9.09 5.9 18.11 10.19 26.59 0.89 1.63 1.78 3.49 3.5 4.36 0.38 1.55 0.63 3.21 1.67 4.5 3.99 5.33 6.65 11.48 9.83 17.29 3.4 6.3 6.55 12.77 10.55 18.72 1.03 1.27 2.06 2.59 2.44 4.21 0.96 1.38 1.7 2.88 2.2 4.5 2.25 6.62 4.15 13.36 6.53 19.93 0.13 0.19 0.29 0.32 0.46 0.42-0.29 0.77 0.42 1.89 0.63 2.67 2.29 6.4 4.91 12.85 5.25 19.73 0.26 3.85 0.59 7.81 0.64 11.67-6.17 14.89-12.59 29.67-18.26 44.76-0.98 2.59-1.67 5.9-4.48 7.14-4.07 1.81-8.57 2.28-12.86 2.93-7.37 0.77-14.8 0.37-22-1.32-11.46-2.61-22.35-7.74-31.88-14.62-4.53-2.96-9.2-5.75-13.93-8.39-1.05-0.48-1.82 0.84-1.38 1.74 1.86 8.15 7.67 14.65 13.71 20.1 11.12 9.71 24.72 16.38 38.95 20.12 6.78 1.84 13.79 2.47 20.78 2.92 1.45 0.13 2.92 0.26 4.35 0.54-1.31 0.42-3.35 1.31-2.7 3.04 1.08 1.94 3.36 2.77 5.28 3.65 0.78 0.4 1.9 0.13 2.13-0.8 0.53 2.32 0.09 4.85 1.09 7.05 0.67 1.22 2.42 0.8 2.88-0.38 1.56-3.06 2.37-6.46 3.91-9.55 0.02 0.01 0.1 0.16 0.21 0.33-0.1 0.03-0.2 0.07-0.3 0.1-0.95 1.86-1.23 4.03-1.85 6.03-1.72 6.11-2.08 12.58-2.79 18.78-0.22 1.45-0.46 3.04-1.08 4.43-0.86-2.76-0.41-5.93-2.22-8.37-3.22-4.66-8.49-7.38-13.66-9.32-5.21-1.86-10.81-3-16.34-2.37-3.66 1.28-6.37 4.27-9.09 6.89-3.69 3.65-6.77 7.99-8.39 12.95-1.1 2.53-2.69 4.86-3.3 7.59-2.52 9.58-2.89 19.56-3.21 29.42-0.22 6.9 0.15 13.86-0.58 20.71-0.71-1.55-0.65-3.47-1.79-4.78-1.36-1.08-2.88 0.43-3.81 1.37-3.16 3.41-6.37 6.83-8.97 10.7-1.74 2.83-1.44 6.35-1.04 9.49 0.3 2.21 1.79 4.76 4.3 4.66 0.61 0.07 1.62-0.33 1.93-0.33-0.93 0.78-0.44 2.63 0.91 2.38 1.62-0.25 2.86-1.58 4.39-1.98 0.7 1.08 2.11 0.93 3.07 0.3 0.58-0.28-0.67 0.75-0.38 1.27 0.23 1.41 1.98 1.08 2.84 0.49 5.1-2.92 9.24-7.22 13.21-11.46-0.09 0.87 0.38 1.94 1.36 2-2.08 2.28-4.74 4.04-6.5 6.61-0.47 1.32-1.69 2.02-2.91 2.52-1.4 0.78-3.12 1.01-4.37 2.03-0.82 1.03 0.54 2.15 1.59 1.84 1.51-0.12 2.99-0.51 4.45-0.92-0.71 0.67 0.66 1.41-0.33 1.66-1.06 0.85-0.14 2.57 1.13 2.45 3.58-0.03 7.03-1.24 10.47-2.12 1.28-0.38 2.55-0.78 3.81-1.24-0.38 1.21 1.15 1.8 2.05 1.26 3.16-1.38 5.75-3.77 8.43-5.89-1.49 1.91-3.51 3.65-4.15 6.07-0.22 0.74-1.25 1-1.84 1.42 0.68-0.97-0.57-1.99-1.52-1.55-2.7 0.59-5.49 1.05-8.05 2.12-1.39 0.78-0.89 2.96 0.61 3.29 2.27 0.73 4.75 0.34 7.09 0.2 3.83-0.64 7.33-2.51 11.2-2.81 5.22-1.12 9.69-4.26 14.08-7.13 5.46-3.78 10.38-8.31 14.89-13.17 0.98-0.9 1.69-2.8 0.28-3.65-2.61-1.28-5.64-1.33-8.39-2.23-8.07-2.33-15.13-7.59-20.22-14.18-2.87-3.77-5.19-8.39-5.59-12.97 1.86 3.75 3.95 7.44 6.99 10.37 3.75 3.93 8.2 7.19 13.15 9.44 8.21 4.1 17.53 5.89 26.67 5.49 10.17-0.46 20.51-4.32 27.38-12.05 9.33-10.02 14.95-23.05 17.32-36.44 2.34-13.45 1.85-27.3-0.77-40.67-0.09-0.22-0.22-0.37-0.37-0.49 0.46-1.05-0.39-2.3-0.46-3.41-0.69-2.94-1.4-5.88-2.07-8.83 2.7 7.81 4.89 15.75 6.73 23.79 0.26 1.39 1.15 3.07 2.81 2.88 3.43-0.33 6.53-2.08 9.53-3.65 8.94-5.32 16.41-12.72 23.53-20.22 7.65-8.28 14.28-17.59 18.87-27.91 3.66-8.01 6.77-16.26 9.83-24.51v-2.18c0.56 0 1.17-0.42 1.21-1.08 2.86-7.33 6.28-14.47 10.52-21.12-0.64 1.24-0.92 3.28 0.73 3.85 3.41 1.62 5.76 4.94 6.68 8.54 1.53 5.14 1.12 10.54 1.01 15.79-0.05 0.9 1.18 1.42 1.78 0.74 0.17 1.25-2.47 5.41-1.7 6.45 1.38 0.01 2.96-1.69 2.78-0.58-0.77 3.96-1.39 7.99-2.79 11.82-0.6 0.65-1.18 1.36-1.11 2.32-0.1 4-0.84 7.96-1.16 11.94 0.05 0.94 1.43 1.28 1.9 0.47-0.29 2.05-0.8 4.11-0.77 6.2 0.28 1.2 2.03 0.85 2.08-0.29 0.21-0.59 0.75-2.47 0.74-2.37-0.72 3.29-1.72 6.59-1.88 9.96 0.09 1.29 1.9 1.02 2.1-0.1 0.1-0.01-0.25 1.3-0.24 1.83-0.21 1.8 0.48 4.35 2.59 4.54 1.77-0.39 2.52-2.38 3.29-3.82-1.02 4.74 1.28 4.06 3.16-0.75-0.25 1.25 1.47 1.91 2.18 0.87 2.53-2.83 3.79-6.52 5.17-10 1.09 0.9 2.18-0.48 2.46-1.48 2.42-6.13 3.62-12.68 4.57-19.18-0.12-1.06 0.3-1.05 1.13-1.21 0.49-0.32-0.19 1.39-0.18 1.91-0.24 1.75-1.03 3.6-0.43 5.34 1.09 1.01 2.01-0.47 2.3-1.45 2.65-7.61 5.84-12.29 6.9-20.25 0.12-0.94 0.8-2.53 0.91-3.31-0.13 1.12-0.81-2.37-0.81-2.37 0.4-3.09 0.23-6.31 0.55-9.4-0.07-0.73 0.87 0.25 1.33-0.13 1.59-0.7 1.56-2.85 1.38-4.33-0.13-1.29-1.29-2.28-2.57-2.28 3.22-3.53 4.21-8.8 2.85-13.33-0.84-6.05-0.15-12.25-1.54-18.23-0.99-3.52-3.12-6.58-4.19-10.09-0.85-2.09-1.27-4.56-2.93-6.2-1.05-0.82-3.01-0.38-3.4-1.98-1.12-3.18-3.25-5.93-5.56-8.33-0.84-0.89-1.98-1.35-3.16-1.47-3.34-1.77-5.93-4.99-9.72-5.91-1.03-0.23-1.8 0.57-2.54 1.1-2.18-0.26-3.99-1.74-6.02-2.48-1.85-0.77-5.22-2.71-7.28-2.41-2.68 0.09-3.9-1.22-6.54-0.93l-0.18 0.06 0.1-1.47-0.19 1.5c-0.58 0.63-0.48 1.64-0.65 2.34-2.6-0.56-5.04-0.02-7.79 0.3-2.49-0.17-5.3 0.25-6.98 2.29-1.12 1.55 0.14 3.45 1.35 4.52 0.48 0.37 1.02 1.03 0.09 1.04-1.25-0.04-2.09-1.33-3.4-1.29-4.6-0.37-9.12 1.57-12.8 4.19-1.59 1.35-3.64 2.83-3.85 5.06 0.27 1.48 1.85 2.23 3.25 2 3.29 0.17 6.48-2.06 9.74-0.81 0.55 0.21 1.15 0.51 1.51 0.94-3.18-0.94-6.74-1.01-9.73 0.57-0.9 0.34-1.23 1.26-1.86 1.88-0.64 0.35-1.93 1.03-2.26 0.02-1.49-1.44-3.83-0.73-5.59-0.25-3.53 1.17-6.35 3.81-8.82 6.49-0.71 0.73-1.71 2.07-0.47 2.8 2.62 1.91 6.27 2.92 9.35 1.54 1.85-0.69 3.86-0.5 5.72 0.17 0.08 0.01 0.16 0.01 0.24 0.02-0.04 0.06-0.08 0.12-0.11 0.17-2.39-0.07-5.18-1.28-7.29 0.46-1.3 0.99-2.53 2.49-3.72 3.33-1.82-2.07-4.61-3.25-7.34-3.41-3.85-0.02-6.81 3.63-7.34 7.22-0.4 2.26 0.41 4.73 2.37 6.02 1.08 0.74 2.03 2.13 3.45 2.1 0.58-0.17 1.97-0.99 0.79-0.12-0.71 0.44-1.34 1.39-2.11 1.51-2.56-1.32-5.36-2.86-8.35-2.2-2.7 0.49-5.65 1.81-6.83 4.45-0.5 2.1 0.83 4.1 1.69 5.92 1.13 2.28 2.85 4.16 4.34 6.18 0.78 1.08 0.45 2.46 0.02 3.61-0.68-0.98-1.21-2.87-2.75-2.46-1.37 0.79-1.62 2.59-2.39 3.87-0.43 0.93-0.25-1.63-0.41-2.21-0.35-3.3-0.28-6.72-1.38-9.89-0.43-1.33-2.21-1.55-3.08-0.53-2.22 2.44-3.86 5.43-5.64 8.15 0.26-3.04 0.18-6.25-0.26-9.2 0.59 1.32 0.44 2.79 0.86 4.13 0.64 1.19 2.22 0.39 2.43-0.7 2.42-6.71 2.71-13.93 3.19-20.98 0.19-1.11-1.29-1.69-1.97-0.84-2.09 1.93-4.57 3.83-5.32 6.71-0.13 0.31-0.79 1.47-0.76 1.18 0.63-1.92 0.63-3.96 0.53-5.96 0.91 0.97 2.02-0.19 2.29-1.12 0.7-1.71 1.67-3.45 1.72-5.33-0.04-0.11-0.1-0.19-0.15-0.28 0.21-0.13 0.39-0.31 0.52-0.58 0.53-2.88 1.12-5.95 0.29-8.82-0.25-0.64-0.88-1.15-1.59-1.11-1.84 0.29-2.58 2.36-3.37 3.8-0.83 1.91-1.63 3.87-2.24 5.85 0.01 0.12 0.06 0.21 0.09 0.31-1.14 0.15-2.2 0.53-2.91 1.56-0.36 0.24-0.83 1.61-1.1 0.63-0.31-0.56-0.52-1.34-0.92-1.86 0.23 0.01 0.48 0 0.73-0.16 0.45-0.3 0.82-0.71 1.18-1.11 0.2 1.4 1.94 0.97 2.33-0.09 1.61-2.29 1.44-5.59 1.13-7.98 0.84 1 2.15-0.01 2.3-1.03 0.99-3.13 0.85-6.48 0.87-9.71-0.1-1.66-0.29-4.07-2.24-4.53-1.97-0.1-2.83 2.13-3.53 3.6-0.35 0.81-0.65 1.64-0.93 2.49-0.27-2.64-0.53-5.29-1.21-7.85 1 0.8 1.42 2.59 2.89 2.59 1.39-0.53 0.95-2.34 1.09-3.51 0.02-4.38-0.24-9.24-3.17-12.76-0.67-1-2.53-1.29-2.21-2.78 0.31-2.84 0.37-6.05-1.65-8.33-0.83-1.15-2.54-1.8-3.78-0.89-0.19-3.07-0.25-6.28-1.84-9.01-0.9-1.67-2.43-3.91-4.62-3.34-0.72 0.5-0.7 0.22-0.63-0.52-0.19-3.69-1.58-7.53-4.38-10.02-1.23-1.18-3.42-1.55-4.56-0.06-0.19-0.16-0.13-1.19-0.31-1.68-0.9-4.06-3.37-7.85-6.84-10.16-1.21-0.58-1.88 0.93-1.7 1.92-0.03 0.63-0.08 1.58-0.45 1.95-0.93-2.07-2.16-3.98-3.75-5.6-0.72-0.54-0.51-0.91 0.17-1.29 1.47-1.33 0.37-3.35-0.55-4.66-1.35-1.91-2.76-3.99-4.84-5.16-0.92-0.25-1.05-1.51-1.51-2.23-0.74-1.39-0.92-3.15-2.03-4.31-1.13-0.45-1.65 0.87-1.43 1.77 0.04 2.68 0.23 5.33-0.41 7.89-0.79-3.71-1.09-7.56-2.59-11.09-0.71-1.99-1.76-3.85-2.42-5.85 1.15 0.47 2.12 1.72 3.42 1.68 1.38-0.36 0.62-1.94 0.23-2.79-1.41-2.93-2.13-6.17-2.24-9.4-0.06-0.18-0.15-0.32-0.26-0.44 0.63-0.74 0.23-2.13 0.15-3.07-0.34-3.03-2.64-5.21-3.85-7.87-0.66-3.04 0.1-6.19-0.25-9.28-0.18-2.24-0.97-4.47-2.17-6.35-1.06-0.93-1.93 0.63-1.82 1.63-0.39 2.06-0.73 4.16-1.29 6.16-0.46-4.28-0.62-8.61-1.76-12.79-0.28-1.22-0.59-2.43-0.89-3.65 0.96 1.22 1.54 2.9 2.91 3.7 1.26 0.31 1.58-1.22 1.29-2.13-0.68-3.98-1.43-8.2-3.85-11.54-0.73-1.03-2.15-0.88-2.94-0.05-0.88-0.25-1.38-1.24-1.68-2.04 0.31 0.95 1.69 1.74 2.33 0.64 0.46-1.78 0.11-3.72-0.14-5.52-0.72-3.05-1.63-6.25-3.73-8.65-0.39-0.5-1.17-0.52-1.6-0.63-0.62-4.3 0.21-9.04-2.21-12.91-1.19-2.13-3.06-4.4-2.24-7.01 0.34-0.88 0.05-2.39-1.19-2.12-0.82 0.27-1.45 0.92-2.13 1.44 1.4-2.77 1.89-6.14 0.89-9.11-0.36-1.21-1.99-1.57-2.8-0.58-0.36 0.19-1.06 1.43-0.96 0.85 1.18-7.72 3.64-15.247 7.28-22.199 1.13-2.329 2.64-4.605 2.75-7.271 0.8-2.943 3.04-5.213 4.26-7.975 1.68-3.366 3.13-6.903 4.05-10.533-0.01-0.364-0.14-0.604-0.33-0.768 0.11-0.004 0.22-0.006 0.32-0.011 1.51-4.315 2.34-9.492 1.94-14.258-0.54-2.995-2.88-5.243-3.54-8.24-3.38-7.739-12.7-12.506-20.93-10.817-2.65 0.687-4.04 3.284-5.2 5.528 2.22-7.696 3.58-16.884-1.77-23.665-3.92-5.4071-10.51-8.2318-17.08-8.3745zm-1.24 12.312c5.11-0.078 10.23 4.098 9.62 9.518 0.58 3.907-2 7.217-4.47 9.916 2.08-4.941 5.22-11.677 1.18-16.471-4.45-4.52-11.64-1.748-16.13 1.266-2.13 1.334-4.39 3.489-5.61 5.318 2.88-5.446 7.89-9.805 14.39-9.473 0.34-0.044 0.68-0.069 1.02-0.074zm-67.94 4.602c5.38 0.411 6.87 6.822 6.63 11.293-0.58 6.226-2.38 12.71-6.17 17.757-2.1 2.311-4.65-1.067-5.75-2.789-3.02-5.265-0.11-12.438 4.67-15.566 2.79-0.565 7.2-2.275 5.94-5.936-2.4-5.382-10.71-4.327-13.52 0.174-4.65 6.406-3.74 15.668-1.63 22.299-3.54-5.147-2.49-12.003-1.32-17.605 1.04-5.182 5.85-9.423 11.15-9.627zm51.76 6.349c-0.84 2.009 1.59 3.405 3.47 3.262 5.57-0.56 8.07 6.492 6.14 10.916-1.92 5.491-7.03 11.213-13.37 10.021-3.19-1.388-1.52-5.702-1.63-8.304 0.61-5.564 2.89-11.2 5.39-15.895zm21.84 13.541c0.08 0.027-0.04 0.154-0.55 0.461-5.46 3.955-11.79 8.581-16.6 12.666 4.84-4.682 10.14-9.277 15.96-12.793 0.37-0.146 1.06-0.379 1.19-0.334zm-38.53 39.635c0.4 4.717 4 8.721 8.44 10.115 6.49 2.096 13.51 0.724 19.79-1.435 4.76-1.702 9.23-4.142 13.42-6.969-2.13 2.143-4.97 3.534-6.81 5.957-0.36 0.563-0.2 1.393 0.39 1.732-2.06-0.786-4.98-0.415-5.82 1.926-0.65 1.258-0.22 3.115-1.74 3.801-1.2 0.778-2.65 1.747-2.64 3.348-1.66 2.729-4.38 4.619-6.77 6.659-10.23 7.97-21.33 14.82-32.62 21.12-8.35 4.62-17.07 8.52-25.33 13.3-0.24 0.24-0.37 0.51-0.45 0.81-0.15-0.06-0.3-0.09-0.46-0.09-0.01 0-0.02 0.01-0.03 0.01 0.07-0.05 0.15-0.08 0.22-0.13 0.18-0.87 0.32-1.81 0.43-2.78 0.54 0.54 1.66 0.15 2.3-0.27 13.67-6.11 26.79-13.44 39.37-21.56 5.52-3.73 11.24-7.44 15.56-12.59 0.64-0.54 0.67-1.63 0.14-2.13 0.04-0.02 0.08-0.04 0.12-0.07 3.7-1.488 6.92-4.118 9.31-7.285 0.76-0.94 0.24-2.472-1.09-2.338-4.32 0.754-8.5 2.23-12.53 3.961 0.1-0.967-0.7-1.93-1.89-1.819-0.6-0.012-1.24 0.243-1.7 0.649-0.16-0.773-0.89-1.476-1.76-1.438-0.72-0.06-1.52 0.025-2.26 0.26 0.21-0.977 0.07-2.226-1.16-2.094-0.66 0.267-1.1-0.051-1.22-0.715-0.34-1.029-1.12-2.675-2.48-2.027-0.34 0.111 0.12-0.831-0.1-1.154 0.01-0.613-0.8-0.9-1.03-1.061 0.75-1.788 0.39-3.883 0.4-5.693zm49.9 8.988c-1.67 1.157-3.65 1.745-5.66 1.885-1.15 0.266-2.28 0.621-3.36 1.096-0.94-1.078-2.57-1.239-3.81-1.899-1.01-0.357-0.91-0.368 0.1-0.203 4.22 0.412 8.6-0.081 12.73-0.879zm7.98 0.615l-0.11 0.153-0.07 0.101c-0.59 0.83-1.44 1.941-2.04 2.475 0.36-0.558 0.27-1.402 0.54-1.873 0.62-0.153 1.17-0.495 1.68-0.856zm-56.57 3.842c0.11-0.013 0.29 0.113 0.53 0.309 0.42 0.341 0.99 0.573 1.55 0.639-0.06 0.115-0.14 0.224-0.19 0.351-0.03 0.281 0.01 0.53 0.09 0.766-0.55-0.273-1.13-0.484-1.63-0.647-0.78 0.097-0.51-0.377-0.43-0.894-0.05-0.359-0.02-0.511 0.08-0.524zm52.74 0.33c0.02 0.017 0.01 0.057-0.01 0.123l-0.14 0.118c-0.81 0.577 0.07-0.356 0.15-0.241zm-45.08 1.629c0.02 0.164 0.06 0.331 0.14 0.502 0.03 0.076 0.07 0.128 0.1 0.196-0.02-0.012-0.04-0.016-0.06-0.028-0.76-0.191-0.69-0.371-0.18-0.67zm-3.91 1.862c0.41 0.213 0.83 0.391 1.21 0.541 0.77 0.2 1.36 0.719 2 1.136-1.06-0.185-2.1-0.448-3.1-0.851 0.02-0.305-0.03-0.573-0.11-0.826zm9.52 1.31c-0.3 0.925 0.3 1.818 1.12 2.218-0.5 0.2-1 0.46-1.33 0.52 0.79-0.97-0.31-2.122-1.38-1.931-0.51-0.023-1.03-0.055-1.54-0.088 1.06-0.168 2.1-0.471 3.13-0.719zm28.52 17.008c-2.63 4.44-4.23 9.39-6.42 14.04-1.67 3.5-1.63 7.48-2.26 11.24-0.13 1.94-0.66 3.93-0.4 5.85 0.82 1.23 2.03-0.13 2.75-0.79 1.4-1.3 2.94-2.43 4.52-3.5-8.59 6.76-16.08 14.79-23.7 22.6-7.89 8.3-15.52 16.84-23.33 25.21-0.86 1.09 0.67 1.9 1.34 2.31-0.92-0.72-2.52 0.04-2.06 1.28 1.22 2.53 3.59 4.28 5.1 6.64 0.74 1.04 1.39 2.15 1.81 3.36-2.98-4.08-7.92-5.89-12.19-8.26-4.18-2.1-8.11-4.65-11.92-7.34-0.97-0.77-2.5-0.33-2.75 0.93-0.26 0.51-0.62 1.74-0.77 1.76-0.31-9.35-4.15-18.19-9-26.04-0.81-1.06-1.38-2.4-2.42-3.24-0.17-0.1-0.32-0.14-0.47-0.15-0.06-0.49-0.25-0.95-0.73-1.34-0.75-0.86-1.6-1.72-2.53-2.44 0.18 0.1 0.37 0.21 0.55 0.32 0.46 0.4 1.24 0.67 1.79 0.49 0.55 1.2 2.39 0.97 3.44 0.58 6.92-5.6 13.53-11.61 20.48-17.19 2.37-1.92 4.76-3.82 7.19-5.67-0.69 0.62-1.29 1.69-0.26 2.3 1.42 0.3 2.79-0.63 4.16-0.92 13.77-4.73 27.25-10.35 40.21-16.98 2.75-1.47 5.61-2.86 7.87-5.05zm-158 1.31c3.04 0.42 7.5 3.18 6.35 6.77-0.64 1.27-2.32 2.35-2.15 0.27-1.94-2.99-7.12-0.85-6.86 2.62-0.22 2.24-1.33-0.51-1.51-1.35-1.12-3.22-0.11-8.46 4.17-8.31zm28.24 4.28c3.84 0.22 5.94 4.89 7.86 7.85 3 4.68 4.58 10.54 8.78 14.32 3.09 0.47 4.84-3.81 8.13-3.45 3.99-0.32 7.09 4.66 10.95 2.04 2.94-1.34 6.41-0.09 9.24-1.12-1.47 0.85-2.74 2.06-4.09 3.08-2.15 1.77-4.36 4.54-3.4 7.5 0.84 2.21 2.66 3.71 4.62 4.97-0.98-0.43-2.04-0.67-3.18-0.61-2.89-2.53-4.04-6.46-6.31-9.5-1.77-2.6-4.03-6.14-7.66-5.77-3.08 0.56-5.42 3.03-7.54 5.12-0.48 1.5 1.17 2.86 1.6 4.28 0.68 1.38 1.71 3.23 2.14 4.38-7.07-6.74-10.97-15.91-14.38-24.86-1.42-3.67-4.08-7.6-8.36-7.94-0.21 0.02-0.41 0.06-0.6 0.1 0.15-0.06 0.29-0.14 0.44-0.19 0.63-0.17 1.21-0.23 1.76-0.2zm-31.95 15.54c3.93 0.43 8.41-0.35 11.73 2.15-4.61-1.16-10-2.56-14.35-1.97 0.85-0.21 1.75-0.17 2.62-0.18zm-4.98 0.19c0.74 0.56-1.31-0.03 0 0zm-103.24 8.58c-4.631 0.52-8.243 4.77-8.974 9.21-0.389 3.35 0.568 6.64 2.256 9.52 4.063 7.36 8.944 14.24 12.754 21.76 3.191 5.66 5.614 11.76 9.123 17.23 1.536 1.83 3.951 0.55 5.578-0.43 4.452-2.65 8.994-5.26 13.269-8.14 1.011-1.39-1.197-2.14-2.052-2.82-3.179-1.82-6.131-4.32-9.739-5.22-0.278-0.14 0.22-1.34 0.957-1.23 1.643-0.83 0.392-2.8-0.662-3.54-2.491-2.54-2.923-6.33-4.164-9.53-2.669-7.75-4.428-16.28-9.996-22.6-1.913-2.06-5.027-2.09-7.07-3.96-0.399-0.18-0.843-0.26-1.28-0.25zm100.6 3.3c-3.56 0.49-7.07 1.5-10.42 2.8-1.02 0.34-2.1 1.69-0.97 2.55 1.36 1.45 3.61 2.36 5.48 1.28 2.43-1.29 4.83-2.75 6.91-4.56 0.88-0.83 0.19-2.22-1-2.07zm-60.933 3.58c-3.598 0.03-6.673 2.53-8.849 5.13 0.081 1.03 0.573 2 1.111 2.97-0.999-1.34-2.242-2.42-3.926-2.87-0.344-0.07-0.695-0.1-1.047-0.09-3.362 0.34-6.142 2.89-8 5.56-2.146 3.71 0.018 7.97 1.594 11.44 2.953 6.44 7.093 13.16 14.022 15.81 4.355 1.68 9.574 1.14 13.504-1.35 2.105-1.47 1.369-4.49-0.151-6.12-4.304-5.68-10.834-9.92-13.154-16.94-0.007-0.01-0.015-0.03-0.022-0.05 1.45 2.4 3.274 4.55 5.69 6.04 4.603 3.12 9.288 6.31 14.501 8.31 3.68 0.54 7.41-0.43 11.01-1.16 3.15-0.73 6.99-2.87 6.97-6.53-0.48-3.49-4.45-4.69-7.45-5.1-2.57 0.02-4.83-1.28-6.6-3.06-4.893-4.3-9.362-9.78-15.863-11.63-1.091-0.27-2.217-0.38-3.34-0.36zm272.9 43.57c0.79 2.32 1.36 4.81 2.22 7.14 0.08 0.09 0.18 0.16 0.27 0.23-0.24 0.45-0.25 1.05-0.01 1.53 0.18 0.88 0.42 2.05 0.47 2.76-0.72-1.54-0.74-3.32-1.64-4.75-0.02-0.01-0.03-0.01-0.05-0.01 0.35-0.79-0.27-1.97-0.35-2.81-0.32-1.37-0.62-2.72-0.91-4.09zm27.06 54.4l0.13 0.1c1.6 1.65 2.74 3.76 3.59 5.85-1.41-1.87-2.58-3.91-3.72-5.95zm8.96 7.97l0.12 0.12c1.96 1.77 3.15 4.23 5.09 5.99 0.69 0.21 0.97 0.14 0.5 0.88-0.22 0.57-0.4 1.15-0.56 1.75-1.85-2.83-3.8-5.63-5.15-8.74zm9.62 15.53l0.11 0.16c0.82 1.18 1.08 2.63 1.3 4.03-0.59-1.35-1.11-2.74-1.41-4.19zm7.01 16.46l0.04 0.17c0.24 0.91 0.41 1.84 0.42 2.78-0.14-0.99-0.21-1.98-0.46-2.95zm-179.19 6.59c-7.04 0.01-13.31 4.52-16.87 10.39-4.71 7.69-6.32 16.85-6.94 25.73-0.4 9.37-0.07 18.78 0.82 28.12 0.91 1.42 3.06 0.91 4.45 1.46 9.81 2.44 18.98 7.25 27.57 12.55 3.17 2.04 6.33 4.17 9.13 6.73-12.3-8.28-25.86-14.99-40.4-18.22-5.82-1.13-12.16-2.18-17.86 0.07-2.95 1.07-4.82 4.32-4.09 7.41 1.45 7.87 9.15 13.8 17.08 13.59 6.68 0.3 13.14-2.97 17.4-8.03-3.46 5.98-10.83 8.55-17.24 8.79-5.65 0.18-11.69-1.42-15.51-5.83-0.91-1.27-2.94-1.62-3.78-0.1-1.84 3.25-2.25 7.31-1.39 10.92 1.06 4.58 5.64 7.86 10.31 7.44 0.38 0.04 2.3-0.36 1.21-0.1-3.36 0.83-7.22 0.92-10.08-1.31-1-0.72-2.94-1.65-3.6-0.03-1.25 4.89-0.17 10.84 3.91 14.15 2.2 1.78 5.18 2.54 7.96 2.09-6.97 4.48 2.01 11.87 6.36 14.3 10.92 6.79 23.17 11.29 35.68 14.11 6.87 1.46 14.14 2.28 21.03 0.55 6.16-1.93 11.98-5.75 15.03-11.6 3.85-6.76 3.81-14.77 3.64-22.32-1.14-15.96-5.59-31.45-10.09-46.73-1.07-3.56-2.2-7.1-3.29-10.65 1.78 3.78 3.02 7.92 5.47 11.33 1.14 1.14 2.52-0.33 2.35-1.61 0.6-5.37-0.14-11.02 2.23-16.06 0.8-2.11-0.43-4.1-1.13-6.02-1.07-5.33-0.54-10.81-0.81-16.22 0.4-2.42-2.3-3.48-3.56-5.12-8.02-7.96-16.94-15.87-28.08-18.94-2.25-0.58-4.58-0.9-6.91-0.84zm271.81 8.11c0.18 0.08 0.05 0.36 0 0zm-8.48 1.77l0.17 0.08 0.13 0.06c1.2 0.81 2.81 0.93 4.1 0.87-1.53 0.68-3.26 0.14-4.4-1.01zm16.57 4.76c2.03 0.56 4.43 1.3 5.46 3.29 0.1 0.42 0.5 1.25-0.24 1.23-0.93 0.42 0.16-0.57-0.08-1.06-0.21-1.82-2.37-2.28-3.76-2.94-0.31-0.14-1.54-0.53-1.38-0.52zm-14.99 1.64c1.62-0.09 3.45 0.66 4.41 1.8-2.01-1.08-4.35-1.25-6.57-1.63 0.72-0.1 1.43-0.17 2.16-0.17zm38.04 2.99h0.04c0.88 0.15 1.85 0.96 1.63 1.94-0.82-0.3-1.56-1.21-1.75-1.94h0.08zm-32.33 2.21c-0.11 1.65-2.13 2.44-3.31 2.68 1.14-0.83 2.44-1.55 3.31-2.68zm-20.43 5.6c-0.6 1.09-2.09 1.66-2.26 2.91 0.01 0.03 0.02 0.05 0.02 0.08-1.73 0-3.45 0.02-5.18 0.05 0.1-0.22 0.24-0.35 0.63-0.17 2.57 0.26 5.2-0.82 6.79-2.87zm-9.33 12.79c-0.15 0.23-1.69 1.64-0.95 0.88 0.28-0.29 0.73-0.72 0.95-0.88zm-15.19 3.63c1.06 0.46-0.09 0.22-0.58 0.19-0.82 0.04 0.43-0.22 0.58-0.19zm-41.01 1.03c0.4 0.44 1.09 0.12 1.22 0.8 0.58 0.6-0.43 0.17-0.76 0.39-0.78 0.47-0.38-0.96-0.46-1.19zm64.8 1.7c0-0.01 0.01 0.02 0.04 0.12 0.15 0.36 0.17 1.2 0.03 0.32 0.02 0-0.07-0.41-0.07-0.44zm-9.05 16.72c0.7 1.48 1.28 3.67-0.18 4.87 0.07-1.62 0.41-3.26 0.18-4.87zm-13.1 0.66c0.01-0.03 0.07 0 0.2 0.12 0.11 0.48-0.24-0.04-0.2-0.12zm-38.63 2.97c0.54 0.3-0.25 0.43 0 0zm42.51 10.35c0.55 1.72 0.69 3.76-0.37 5.32-0.87 1.52-2.14 2.88-3.74 3.64 2.37-1.75 4.5-4.44 4.16-7.55 0.01-0.42-0.04-1.2-0.05-1.41zm-256.79 16.39l-0.04 0.09c-1.11 2.59-3.45 4.41-5.86 5.73 2.4-1.43 4.37-3.5 5.9-5.82z" fill="#5b6b1d"/>
<path d="m309.36 120.41c-5.11 1.09-9.26 4.69-13.9 6.92-12.45 7.13-27.28 8.85-39.53 16.45-6.47 4.7-12.03 10.53-17.81 16.02-1.5 0.9-1.44 2.63-0.25 3.76 4.09 5.16 6.35 11.38 8.3 17.58 0.93 3.57 4.26 5.45 7.4 6.82 3.78 1.79 8.6 4.28 12.53 1.39 4.63-3.54 8.33-8.2 11.74-12.88 0.91-1.15-0.86-2.3-1.49-1.99 5.21-1.62 8.75-6.17 12.49-9.88 6.14-6.93 12.38-13.95 17.06-21.97 0.81-3.09 0.13-6.47 1.59-9.46 1.13-3.77 3.34-7.28 3.91-11.19-0.11-0.96-1.1-1.65-2.04-1.57zm-36.35 54.92l-0.13 0.04c-7.29 2.15-14.44 4.85-21.91 6.24-1.16-1.11 2.08-0.91 2.61-1.44 6.44-1.81 12.92-3.33 19.43-4.84zm51.62 43.76c-2.61 0.83-3.83 3.81-5.7 5.62-9.34 11.79-22.24 19.87-34.91 27.57-7.25 4.45-14.5 10.74-23.42 10.65-5.58 0.38-10.48-2.99-14.19-6.65-1.2-0.82-3.04-3.56-4.45-1.68-0.45 2.82 1.31 5.53 2.02 8.21 1.42 3.6 2.85 7.83 6.79 9.37 1.99 0.87 3.69 2.26 5.53 3.37-1.75-0.65-3.47-1.38-5.15-2.2-1.09-0.75-3.2-0.7-2.94 1.07 0.23 10.19 4.66 20.12 12.14 27.05 12.29 11.69 29.96 16.03 46.56 15.22 17.86-1.06 35.03-6.71 51.81-12.57-0.85 1.07-3.62 2.51-2.16 3.91-3.31 1.15-6.64 2.26-10.11 2.89-11.14 1.84-21.94 5.47-33.22 6.09-13.09 0.75-26.63 0.48-39.1-4.15-2.17-0.97-2.25 1.91-2.18 3.3-0.12 3.28 0.35 6.71-1.24 9.72-0.63 3.69-0.7 7.56-0.62 11.25 4.03 4.26 8.62 8.18 13.18 11.94 15.84 11.91 35.2 18.66 54.89 20.24 7.87 0.55 15.83 0.04 23.65-0.94 0.76-0.14 1.52-0.3 2.28-0.44-3.27 0.69-6.57 1.22-9.91 1.54-7.25 0.69-14.61 0.96-21.95 0.47-7.6-0.74-14.73-3.45-21.88-6.1-9.68-3.81-19.21-8.1-28.19-13.36-3.15-1.84-5.87-4.34-9.07-6.06-0.19-0.06-0.38-0.09-0.58-0.07-1.41 0.39-1.75 2.15-2.21 3.36-1.63 6.32-0.99 12.96-0.09 19.34 1.19 7.76 4.24 15.05 6.1 22.65 0.32 1.2 0.46 2.68 1.85 3.11 5.96 3.51 11.9 7.07 17.81 10.65 5.66 3.22 11.59 6.01 17.84 7.9 7.55 2.29 15.39 4 23.31 4.07 5.61-0.17 11.21-0.82 16.74-1.77 3.22-0.55 6.21-2.35 7.91-5.19 2.94-4.72 4.67-10.06 6.89-15.14 3.85-9.52 7.94-18.94 11.76-28.47 0.21-0.74-0.31-1.22-0.94-1.32 0.41-0.18 0.82-0.34 1.23-0.54 0.87-1.95 0.03-4.51 0.19-6.69-0.3-8.15-1.4-16.29-4.19-23.99-2.74-8.13-4.94-16.54-8.87-24.2-0.76-1.22-1.83-2.66-3.43-2.62-0.31 0.09-0.62 0.18-0.93 0.27 0.49-0.24 0.98-0.5 1.46-0.73 1.33-1.61-0.91-3.55-1.34-5.18-6.29-12.08-12.5-24.24-19.65-35.84-0.72-1.41-2.38-2.91-3.49-3.35 1.2-0.69 1.09-2.67-0.53-2.54-0.48 0.08-0.9 0.25-1.29 0.46 0.24-0.19 0.47-0.41 0.69-0.64-1.29-4.59-3.86-8.83-5.54-13.28-3.29-7.55-5.67-15.35-7.22-23.45-0.25-0.97-0.72-2.21-1.94-2.13zm13.06 40.16c-1.55 1.27-2.76 3.14-4.92 3.4-5.18 2.48-10.12 5.63-15.56 7.47-15.6 5.75-32.34 8.87-48.92 7.93-2.19-0.08-4.35-0.38-6.46-0.85 7.43 0.94 15.04 0.31 22.48-0.36 16.81-1.73 32.98-7.36 48-14.98 1.66-1.02 3.7-1.6 5.38-2.61z" fill="#b3d629"/>
<path d="m158.69 144.5c-5.9429 1.0059-10.306 5.8872-15.35 8.8262-7.4538 5.2922-15.396 9.9512-22.818 15.234-1.5296 2.7054 0.0931 6.5628-2.6465 8.834-5.3739 5.2191-13.387 4.2336-20.197 3.9629-2.4834 1.5372-0.39023 6.5064-3.6719 7.8144-5.1223 2.5211-11.264 2.4252-15.916 6.0723-17.185 11.373-34.823 22.345-53.316 31.568-7.2172 3.9387-14.939 7.273-21.855 11.576-0.42622 2.1066 2.8689 3.0166 4.0527 4.4648 5.4853 4.4294 13.085 8.9988 12.945 17.014-0.07899 1.9178-0.5733 7.5921 2.4688 4.6992 1.6879-2.3307 5.6291-3.5181 5.9473-6.6094-1.6551-5.4983-3.8433-11.036-3.9434-16.863 0.89083-0.75136 2.1591-2.8566 2.6562-0.99219 6.2493 3.5371 11.608 8.3542 16.121 13.896 2.3385 3.2909 3.6498 7.4599 2.4141 11.416-0.43458 2.1496 2.2956 3.0548 3.5469 1.3984 4.4695-4.0393 9.5184-7.445 13.881-11.59 0.18875-3.2667-2.1484-6.4202-1.8828-9.8516-0.38981-2.0284 0.48088-3.7833 1.4707-5.4492-0.0742 0.80583 0.25233 1.5831 1.2246 1.9453 1.7464 0.43399 3.1958 1.3843 4.5527 2.5059 4.549 1.3762 7.7113 5.4399 9.5723 9.6465 1.4995 3.166 1.3797 6.756 1.5742 10.119 1.6429 1.82 3.3473-1.983 4.7871-2.791 4.8016-4.9154 10.766-8.5746 15.457-13.574 1.1474-2.5864-1.6156-4.9045-1.2109-7.5762-0.17239-2.5174 0.89808-4.5749 2.3867-6.4219-0.0903 0.54912 0.13816 1.0556 0.95898 1.3906 5.0839 2.5436 11.741 3.9537 14.609 9.3828 2.0388 3.6796 0.72566 8.4033 3.041 11.904 1.8139 0.92437 2.7894-1.7446 3.9238-2.7129 9.5473-10.618 19.358-21 28.717-31.789 8.7652-9.9606 17.946-19.602 26.121-30.055 0.54058-2.161-2.2995-1.473-3.498-1.25-3.7184 1.0366-8.3021-0.82842-9.0274-4.9336-1.1002-3.3593-0.57186-6.9159-1.6191-10.256-0.50463-0.1893-0.86693-0.31883-1.3184 0.0625-18.42 17.927-37.17 35.526-56.436 52.549 15.174-14.318 30.052-28.95 45.303-43.18 5.9398-5.6476 12.951-10.758 16.229-18.559 1.241-2.6971 3.1831-5.5648 6.4394-5.7793 3.4222-1.4895 7.0427-4.5432 7.2188-8.5215-0.3472-2.2021-2.9094-3.2509-4.9024-3.1602-3.4173 0.35511-5.3039 3.8293-8.0508 5.5039-16.45 12.674-31.949 26.483-48.18 39.42-12.007 9.6742-24.003 19.374-36.207 28.801 2.1387-1.6521 4.2396-3.3519 6.2656-5.1465 6.0696-5.396 12.302-10.588 18.934-15.271 13.987-10.977 27.314-22.758 40.834-34.287 6.6511-5.6821 14.397-10.159 20.439-16.504 1.979-2.985-2.62-6.2722-5.291-4.3301-2.1476 0.8796-4.1479 2.0711-6.1524 3.2305 1.5451-0.97907 4.4157-3.6283 1.9844-5.2051-0.789-0.41182-1.6985-0.59638-2.5859-0.58007zm-31.354 34.084-0.13672 0.16211c-0.74329 0.78295-2.983 3.0224-3.498 2.0215 1.2618-0.645 2.3471-1.5881 3.6348-2.1836zm-12.777 8.0781c2.2389 0.57137-0.85835 2.8964-1.998 2.7637-1.023 0.40735-3.483 0.2541-1.625-1.1211 0.96172-0.91051 2.2528-1.7066 3.623-1.6426zm-15.014 3.5762-0.42969 0.31445-0.24219 0.17774c-21.202 14.971-42.716 29.497-64.801 43.137 15.659-10.709 36.586-23.445 52.101-34.345 1.9774-2.0346-5.9666 0.19412-7.3806-0.18844 1.6042-0.2729 3.9871-0.5857 4.9512-1.9727-1.1337 1.0038-1.5218 4.0352 0.7793 3.0293 5.0907-3.2584 10.005-6.7828 15.021-10.152zm2.75 5.0996c1.1189 0.60641-0.7049 2.4367-1.2734 3.0312-1.0135 0.91888-3.7368 3.0661-4.1934 0.77148 1.0049-1.8959 3.2621-3.6892 5.4668-3.8027zm-18.805 27.85c-5.9298 4.5712-11.91 9.0754-17.969 13.477 5.8033-4.7192 12.017-8.9307 17.969-13.477z" fill="#666"/>
<path d="m161.02 167.11a2.0718 3.0607 49.035 0 0 -2.33 0.98 2.0718 3.0607 49.035 0 0 -0.95 3.57 2.0718 3.0607 49.035 0 0 3.67 -0.44 2.0718 3.0607 49.035 0 0 0.95 -3.57 2.0718 3.0607 49.035 0 0 -1.34 -0.54zm-34.17 10.25a1.3655 2.8723 56.443 0 0 -0.14 0 1.3655 2.8723 56.443 0 0 -2.17 0.81 1.3655 2.8723 56.443 0 0 -1.63 2.73 1.3655 2.8723 56.443 0 0 3.14 -0.45 1.3655 2.8723 56.443 0 0 1.64 -2.73 1.3655 2.8723 56.443 0 0 -0.84 -0.36zm20.37 1.81c-1.48 0.16-2.68 1.21-3.84 2.07-0.67 0.48-1.36 1.45-0.74 2.22 0.8 0.82 2.11 0.51 3.05 0.12 1.3-0.58 2.52-1.65 2.92-3.06 0.14-0.8-0.62-1.43-1.39-1.35zm12.35 5.82c-1.51-0.12-3.08 1.05-3.41 2.53-0.19 1.04 1.01 1.65 1.9 1.46 1.38-0.12 2.97-1.01 3.06-2.52 0.01-0.58-0.37-1.11-0.91-1.33-0.21-0.07-0.42-0.12-0.64-0.14zm-45.81 1.12c-1.56 0.09-3.25 1.05-3.71 2.62-0.27 1.02 0.77 2.01 1.77 1.72 1.32-0.36 2.63-1.05 3.51-2.11 0.67-0.8 0.06-2.07-0.94-2.17-0.21-0.05-0.42-0.06-0.63-0.06zm16.62 8.12c-1.66 0.19-3.01 1.39-4.3 2.37-0.76 0.54-1.53 1.64-0.83 2.52 0.89 0.93 2.37 0.57 3.42 0.14 1.45-0.67 2.82-1.88 3.26-3.48 0.16-0.92-0.68-1.63-1.55-1.55zm-28.17 0.85c-2.02 0-4.093 1.3-4.733 3.25-0.291 0.93 0.666 1.81 1.576 1.54 1.437-0.34 2.717-1.21 3.787-2.21 0.56-0.58 1.08-1.66 0.32-2.29-0.26-0.23-0.62-0.29-0.95-0.29zm-18.304 0.17a1.2243 3.9082 56.784 0 0 -3.279 1.35 1.2243 3.9082 56.784 0 0 -2.6 3.17 1.2243 3.9082 56.784 0 0 3.942 -1.12 1.2243 3.9082 56.784 0 0 2.597 -3.17 1.2243 3.9082 56.784 0 0 -0.66 -0.23zm15.922 39.72c-1.371 0.08-1.615 1.72-1.416 2.8 0.229 1.39 0.568 2.82 1.24 4.05 0.718 0.74 1.848 0 1.808-0.92 0.24-1.67 0.74-3.55-0.1-5.13-0.35-0.47-0.94-0.81-1.532-0.8zm-97.976 5.4c-2.4658 0.66-1.1872 3.9-0.752 5.59 2.8103 8.24 7.481 16.33 14.818 21.27 1.929 0.91 4.096-0.63 5.32-1.97-0.486-1.55-1.815-2.81-1.97-4.57-0.523-1.46-0.513-4.96-2.897-4.24-1.329 0.66-2.642 2.42-4.193 0.98-4.2862-2.65-6.0133-7.85-6.5784-12.62-0.4562-1.87-1.5207-4.32-3.748-4.44zm24.117 0.34c-2.444 0.49-1.357 3.65-0.86 5.25 2.513 6.76 6.026 13.41 11.209 18.5 2.673 1.78 5.376 4.13 8.633 4.6 2.377-0.23 1.233-3.16 0.863-4.6-0.757-2.17-1.073-4.63-2.375-6.51-3.06-0.3-6.838 0.48-9.078-2.26-3.718-3.07-4.729-7.98-5.925-12.39-0.426-1.09-1.063-2.62-2.467-2.59zm36.59 1.23c-1.352 0.18-1.475 1.87-1.477 2.95 0.227 2.6 0.94 5.18 2.172 7.48 0.155 0.28 0.396 0.42 0.652 0.47 0.173 1.35 2.037 3.38 2.627 4.15 3.135 3.41 6.76 7.01 11.363 8.21 2.442-0.08 1.899-3.24 1.409-4.83-0.853-3.18-3.781-6.47-7.399-5.54-2.136 0.49-4.039-0.53-5.594-1.86-0.097-0.04-0.672-0.82-1.162-1.44 0.045-2.66 0.114-5.44-0.937-7.93-0.336-0.7-0.721-1.69-1.654-1.66zm38.981 1.53c-2.348 0.66-0.21 3.11 0.71 4.13 3.71 4.36 8.39 8.41 14.01 9.93 2.47 0.73 2.6-2.58 2.13-4.18-0.92-2.76-1.87-6.56-5.01-7.5-1.98 0.21-3.87 1.38-5.96 0.82-2.41-0.08-3.48-3.04-5.88-3.2z" fill="#333"/>
<path d="m305.61 16.896c-4.23 0.116-8.23 2.028-11.53 4.581-1.8 1.476-3.64 3.117-4.58 5.298-0.38 0.803-0.29 1.993 0.66 2.336 1.13 0.301 2.33 0.082 3.49 0.166 2.25 0.019 4.21 1.662 5.18 3.612 1.07 2.082 1.1 4.495 0.78 6.752-0.83 4.256-3.64 7.948-7.14 10.408-0.31 0.291-0.88 0.386-1.06 0.789 0.24 0.254 0.66-0.155 0.93-0.199 3.66-1.628 6.77-4.2 10-6.51 1.67-1.18 3.18-2.575 4.39-4.225 1.68-2.163 2.74-4.713 3.89-7.174 1.32-3.051 2.31-6.376 2.05-9.734-0.18-2.215-1.34-4.504-3.46-5.42-1.12-0.513-2.37-0.69-3.6-0.68zm-69.11 5.045c-1.66-0.029-3.32 0.481-4.7 1.405-2.48 1.676-4.03 4.419-4.85 7.244-1.31 4.61-1.05 9.566 0.23 14.152 0.4 1.508 0.99 2.954 1.53 4.416 0.09 0.297 0.13 0.632 0.4 0.828 1.2 1.233 2.83 2.159 4.58 2.129 1.23-0.059 2.73-0.415 3.7-1.222 0.14-0.058 0.22-0.336-0.01-0.299-0.54 0.206-1.32 0.429-1.89 0.279-1.29-0.323-2.3-1.267-3.2-2.193-1.55-1.639-2.28-3.91-2.36-6.125-0.1-2.933 0.71-5.89 2.25-8.389 1.27-2.01 3.14-3.808 5.52-4.35 1.09-0.213 2.29-0.265 3.19-0.998 0.97-0.717 1.39-2.039 1.08-3.197-0.42-1.791-2.04-3.094-3.78-3.51-0.55-0.148-1.12-0.175-1.69-0.17zm60.04 10.989c-0.29 0.08-0.46 0.388-0.65 0.603-1.13 1.506-2.06 3.142-2.98 4.779-0.64 1.199-1.31 2.393-1.8 3.663-0.08 0.27-0.24 0.603-0.07 0.867 0.21 0.183 0.48-0.034 0.66-0.154 0.89-0.699 1.59-1.596 2.28-2.471 1.03-1.351 2.01-2.752 2.75-4.283 0.25-0.505 0.42-1.065 0.33-1.631-0.05-0.435-0.07-0.914-0.33-1.283-0.05-0.053-0.11-0.094-0.19-0.09zm-61.89 0.783c-0.42 0.038-0.73 0.4-0.91 0.762-0.4 0.859-0.41 1.846-0.27 2.767 0.14 0.914 0.62 1.719 1.01 2.539 0.29 0.552 0.54 1.406 0.86 1.94 0.08 0.113 0.24 0.003 0.2-0.117 0.13-1.248 0.28-2.776 0.39-4.026 0.03-0.783 0.07-1.572-0.01-2.353-0.05-0.338-0.07-0.703-0.26-0.998-0.25-0.298-0.6-0.539-1.01-0.514z" fill="#fff"/>
</g>
<path d="m227.41 48.185s1.6861 1.9777 2.7302 2.7302c0.60398 0.43532 1.2826 0.79193 1.9977 0.99887 0.64286 0.18601 1.3316 0.26385 1.9977 0.19977 0.92272-0.08876 1.8756-0.31098 2.6636-0.7991 0.82773-0.51268 1.9977-2.1309 1.9977-2.1309" stroke="#000" stroke-width=".2" fill="none"/>
<path d="m325 564.29c-0.825-0.30543-2.1311-1.0574-2.9024-1.671-0.77135-0.61365-3.7404-1.1758-6.5979-1.2492-6.0283-0.15481-9.2852-1.6126-10.413-4.6609-0.69513-1.8791-1.5752-2.1664-6.6936-2.1846-19.231-0.0686-18.226-23.451 1.4835-34.522 1.1168-0.62736 1.1786-1.8976 0.32749-6.7298-3.997-22.691 11.979-58.884 28.382-64.297 7.4245-2.4503 23.533 1.206 29.633 6.726 1.6978 1.5365 1.7573 1.3734 1.199-3.2905-0.80531-6.7281-1.2058-7.7024-2.8988-7.0527-0.80547 0.30909-2.7142-0.47962-4.2416-1.7527-2.2524-1.8774-4.3829-2.423-11.277-2.8881-22.67-1.54-47.24-15.63-58.74-33.72l-2.2262-3.5-0.0168 6.0141c-0.0163 5.8089-0.8959 8.9478-6.1312 21.878-8.5966 21.233-39.576 22.047-70.107 1.8422-6.41-4.24-16.71-15.23-14.28-15.23 1.2799 0-2.1556-2.7548-4.274-3.4272-5.3954-1.7124-8.545-14.024-4.8726-19.046 0.98421-1.346 1.1214-2.903 0.49969-5.6701-0.94201-4.1926 1.168-11.268 3.6436-12.218 0.78042-0.29947 1.1258-1.3532 0.82294-2.5111-1.77-6.76 6.22-15.13 14.44-15.13h4.9718l-0.82217-4.25c-1.8964-9.803-0.25682-31.197 3.008-39.25 11.55-28.487 33.555-31.295 56.991-7.2703 5.8111 5.957 8.577 7.8102 3.842 2.5743-5.4641-6.0422-7.477-8.6856-10.954-14.385-5.5-9.01-8.8-15.93-8.8-18.44 0-1.2264-1.0962-4.761-2.4361-7.8548-1.3398-3.0938-3.1586-8.2339-4.0417-11.422-1.0039-3.6247-2.2459-5.9924-3.3139-6.3178-11.72-3.56-28.21-21.57-28.21-30.79 0-4.6125-3.9635-10.381-9.1492-13.316-2.943-1.6656-7.663-5.5592-10.489-8.6524-3.4723-3.8006-5.9039-5.6228-7.5-5.6203-2.5674 0.004-8.8618 3.4343-8.8618 4.8294 0 0.47439-2.3778 3.2935-5.284 6.2647s-6.4885 7.0365-7.9607 9.0339c-1.4722 1.9975-4.6068 5.6298-6.966 8.0718-2.3591 2.442-7.4393 7.9424-11.289 12.223-3.85 4.2807-9.7 10.682-13 14.224-3.3 3.5426-6.3752 7.2507-6.8337 8.2403-1.4512 3.1317-10.273 1.6373-14.919-2.5274-2.07-1.85-4.39-3.36-5.17-3.36-0.77758 0-1.5958-0.54607-1.8183-1.2135-0.62-1.86-17.76 12.92-17.76 15.3 0 3.4729-8.7888 0.7864-14.46-4.4201-1.4944-1.3719-3.2397-2.9197-3.8785-3.4396-1.3096-1.0658-8.0137 3.8801-13.445 9.9186l-3.2834 3.6507-5.1058-1.3469c-4.525-1.19-8.779-4.02-12.544-8.34-1.246-1.43-8.284 2.71-8.284 4.87 0 1.59-3.104 4.02-5.13 4.02-5.747 0-16.87-16.23-16.87-24.61 0-7.6935 0.77192-8.3942 20.315-18.439 9.9612-5.12 20.483-10.971 23.382-13.001 2.899-2.0308 7.7531-4.9481 10.787-6.4831 6.106-3.0894 6.3865-3.5932 3.5687-6.411-1.071-1.071-2.4666-3.876-3.1014-6.2333-1.79-6.65-5.339-12.94-11.89-21.08-8.828-10.98-10.452-17.9-5.812-24.78 5.7523-8.5272 21.368-2.2973 24.387 9.729 0.73947 2.9463 0.90349 2.9214 5.1142-0.77566 2.9319-2.5743 4.0648-2.9832 6.828-2.4648 2.6423 0.49569 3.522 0.23081 4.3458-1.3085 1.207-2.25 6.022-4.14 10.574-4.14 3.4619 0 7.733 2.7617 16.001 10.346 3.9426 3.6168 5.7507 4.5939 8.55 4.6202 1.9525 0.0184 4.0682 0.55159 4.7015 1.1849 1.1737 1.1737 8.6017-2.6684 14.959-7.7372 4.0694-3.2448 2.244-6.433-4.9885-8.7129-9.9977-3.1515-14.996-10.202-15.226-21.478-0.0824-4.0339-0.67146-7.7996-1.3218-8.45-0.64-0.64-1.17-3.6-1.17-6.57 0-10.308 10.775-16.482 16.128-9.2408 1.9847 2.6845 2.5794 2.9056 6.405 2.3812 4.4529-0.61034 10.869 0.95661 13.579 3.3161 1.4112 1.2288 2.016 1.0263 4.8558-1.6264 3.3498-3.1292 10.576-4.2388 13.898-2.1342 0.83332 0.52793 2.3928 0.32942 4-0.50916 1.4488-0.75594 4.1796-1.3772 6.0684-1.3806 15.299-0.0274 25.019-13.493 16.108-22.315-13.41-13.277 3.82-43.691 24.75-43.691 1.5874 0 2.171-1.1333 3.1524-6.1219 6.1091-31.052 40.637-39.308 40.245-9.6232-0.0757 5.7358-0.0672 5.7527 2.5686 5.0911 1.4545-0.36506 4.5033-0.70476 6.775-0.75488 4.0337-0.089 4.1982-0.23151 7.0284-6.0911 13.257-27.448 50.57-28.326 53.098-1.2491 0.61 6.585 0.7 6.749 3.44 6.749 23.095 0 33.562 25.857 18.922 46.741-1.6351 2.3324-4.0526 7.2824-5.3722 11s-3.7811 10.3-5.47 14.627c-3.0601 7.8407-3.0641 7.8768-1.1634 10.5 1.8981 2.6196 2.9998 11.671 1.6804 13.806-0.35152 0.56877 0.49515 1.5509 1.8815 2.1826 2.7672 1.2608 5.512 6.7215 5.2104 10.366-0.10561 1.2762 0.86088 3.7444 2.1478 5.485 1.4889 2.0139 2.5239 5.0973 2.846 8.4789 0.32285 3.3896 1.3378 6.4079 2.8027 8.3342 2.6412 3.4733 4.3906 10.13 3.6628 13.937-0.31431 1.6442 0.13373 3.3126 1.2085 4.5002 2.2054 2.437 3.0963 9.1318 1.5898 11.947-1.0166 1.8996-0.76437 2.6584 1.8877 5.679 3.1615 3.6007 3.8342 7.1036 2.0166 10.5-0.78288 1.4628-0.65763 2.504 0.5 4.1568 0.84947 1.2128 1.5445 3.2775 1.5445 4.5882s1.125 3.7201 2.5 5.3542 2.5 4.0616 2.5 5.3944c0 1.4291 0.58381 2.4233 1.4231 2.4233 2.076 0 7.3873 5.6472 7.7585 8.2491 0.17655 1.2376 1.5117 2.8022 2.9964 3.5116 3.0597 1.4618 7.822 6.7554 7.822 8.6947 0 0.71608 1.3175 1.8477 2.9277 2.5146 3.4825 1.4425 5.5654 3.6455 6.5775 6.9566 0.40796 1.3347 2.2612 3.9912 4.1183 5.9034s3.3765 4.3492 3.3765 5.4156 0.89847 3.0811 1.9966 4.4772c1.0981 1.396 2.4568 4.2471 3.0191 6.3357 0.5624 2.0886 2.5889 6.125 4.5034 8.9699 1.9435 2.888 3.4808 6.427 3.4808 8.013 0 1.5623 0.4215 3.101 0.93668 3.4194 1.7695 1.0936 4.0633 6.8496 4.0633 10.196 0 1.8425 0.9 5.0292 2 7.0816 2.1974 4.0998 2.561 8.3444 0.96965 11.318-0.76384 1.4272-0.60571 2.7464 0.61137 5.1 1.0972 2.1217 1.4791 4.6174 1.1515 7.5244l-0.49026 4.3496 2.3311-2.5153c1.2821-1.3834 2.7962-2.5154 3.3645-2.5154 0.56834 0 2.4222-2.7513 4.1197-6.114 2.1701-4.299 3.9138-6.4264 5.8736-7.1661 1.7616-0.66495 3.2238-2.2593 3.9736-4.333 0.99394-2.7487 8.1132-9.3869 10.067-9.3869 0.3178 0 3.1245-2.4082 6.237-5.3516 3.8485-3.6393 7.1201-5.7606 10.225-6.63 2.5113-0.70311 4.569-1.5574 4.5728-1.8984 0.0243-2.2081 7.5839-5.4691 13.293-5.7344 3.41-0.15844 8.225-0.4946 10.7-0.74703 2.6467-0.26994 6.1474 0.1531 8.5 1.0272 2.2 0.81739 5.9189 1.8896 8.2643 2.3826 7.2136 1.5165 15.514 7.4504 19.516 13.952 1.185 1.925 3.2362 4.3631 4.5581 5.4179 2.6638 2.1256 5.1611 7.3196 5.1611 10.734 0 1.219 0.96918 4.2184 2.1537 6.6654 3.8316 7.915 1.7457 44.147-3.6045 62.609-6.1505 21.224-18.264 41.497-25.751 43.099-1.8138 0.38799-3.8056 1.1132-4.4262 1.6115-8.5851 6.8934-12.028-12.633-7.7827-44.137 2.5551-18.96 1.8948-27.2-2.5618-31.971-4.8785-5.2225-6.2467-3.4698-12.467 15.971-10.467 32.714-17.12 45.341-31.398 59.599-12.125 12.107-22.122 18.206-30.764 18.765-2.0173 0.13066-2.0979 0.61877-2.004 12.136 0.30005 36.813-20.784 63.98-50.68 65.303l-9.7858 0.43289-1.3831 3.3102c-5.89 14.09-35.18 29.34-47.55 24.76zm10.35-4.79c1.9745-0.825 4.5139-1.5 5.6432-1.5 4.4374 0 15.474-6.5916 23.19-13.85 9.3877-8.8313 9.3336-8.5158 1.7041-9.9346-14.594-2.7141-28.351-16.205-29.598-29.026l-0.45607-4.689 2.935 6c11.786 24.094 52.131 31.539 70.634 13.036 18.865-18.865 24.83-50.729 16.007-85.511-4.1182-16.234-2.7898-16.248 2.3789-0.0245 1.6646 5.225 3.5516 12.088 4.1933 15.25 1.3252 6.5312 1.3154 6.527 8.3379 3.557 11.62-4.9143 31.531-24.535 40.432-39.842 4.9798-8.5636 7.792-15.094 15.918-36.965 7.7768-20.93 20.739-38.062 28.735-37.978 1.4599 0.0153 0.88099 0.57693-1.9005 1.8437-6.492 2.9567-17.701 16.901-14.455 17.983 5.8464 1.9488 9.2891 10.383 8.5199 20.873-0.2734 3.7283-0.24358 5.8788 0.0663 4.7788 1.0743-3.8138 1.916-3.4269 1.6882 0.77606l-0.22895 4.2239 0.9356-4.4418c1.3807-6.5547 1.9904-7.241 1.3843-1.5582-0.84119 7.8879-3.6156 20.491-4.4037 20.004-0.39384-0.24341-0.67971 0.78115-0.63527 2.2768 0.0444 1.4956-0.26645 4.7275-0.69086 7.1818-0.42441 2.4544-0.54419 4.235-0.26617 3.957 0.88311-0.8831 7.5854-31.978 7.6014-35.267 0.008-1.7341 0.46899-3.8279 1.0235-4.6529 2.0172-3.0013-1.2851 18.105-4.9489 31.631-1.0624 3.9221-2.18 9.3221-2.4835 12-0.40327 3.5583-0.32911 4.0614 0.27552 1.869 0.45503-1.65 2.2059-7.725 3.8908-13.5s3.3472-11.791 3.694-13.368c0.34679-1.5774 0.79457-2.7024 0.99508-2.5 0.57105 0.57645-0.88809 7.2061-4.886 22.2-3.9178 14.693-4.4268 21.121-0.70122 8.855 2.3014-7.577 5.9982-25.161 8.5538-40.687l1.4814-9-0.48841 7.6594c-0.55078 8.6374-5.3774 33.331-8.3989 42.971-2.359 7.5256-2.4712 9.2527-0.6972 10.725 1.6841 1.3977 4.6774-5.5148 8.2031-18.944 1.359-5.1762 2.246-7.7238 1.9712-5.6613-1.4279 10.716-1.4299 11.143-0.0265 5.75 2.5577-9.8292 5.5268-23.697 5.5268-25.815 0-1.137 0.46804-2.3565 1.0401-2.71 0.65533-0.40502 0.84414 0.22052 0.51041 1.691-0.29132 1.2836-0.71947 3.4588-0.95145 4.8338s-1.1528 5.875-2.0464 10c-0.89352 4.125-2.0527 9.525-2.576 12-0.87806 4.153-1.7293 7.5193-3.5402 14-1.3776 4.93 2.6775-0.43643 4.6536-6.1584 1.0146-2.9379 1.8594-4.6827 1.8774-3.8774 0.16994 7.6222 5.6613-11.838 6.1643-21.845 0.10778-2.1443 0.24821-1.9846 0.77472 0.88099 0.70094 3.8149 2.3745-7.5806 3.7082-25.25 0.36326-4.8125 1.069-8.75 1.5683-8.75 0.49929 0 0.67251 1.4625 0.38495 3.25-0.28757 1.7875-0.99529 8.875-1.5727 15.75-0.57743 6.875-1.6628 15.128-2.412 18.34-1.552 6.6537-0.56841 6.4338 1.3523-0.30236 1.587-5.5659 3.9314-21.724 4.2131-29.037 0.20363-5.2861 0.23674-5.2083 0.85155 2l0.63968 7.5 0.29616-8c0.16289-4.4 0.50196-7.2125 0.75349-6.25 0.68737 2.6303 2.3107 2.1034 2.3107-0.75 0-1.8333-0.53333-2.5-2-2.5-1.9809 0-1.9814-0.0186-0.0558-1.9442 2.2388-2.2388 3.631-8.2217 2.5127-10.798-0.41955-0.96664-0.81536-5.5825-0.87957-10.258-0.10553-7.6829-0.70201-10.281-3.4442-15-0.47936-0.825-1.4929-3.525-2.2524-6-1.0306-3.3586-1.8848-4.5005-3.3675-4.5018-1.1911-0.001-2.1396-0.80194-2.3686-2-0.50182-2.6256-6.0853-9.653-7.1479-8.9963-0.45515 0.28129-2.1031-0.54971-3.6622-1.8467-4.7088-3.9172-7.453-5.0818-8.3924-3.5618-0.62606 1.013-1.8952 0.70571-5.7492-1.3919-5.4336-2.9573-14.534-4.1577-14.795-1.9516-0.0814 0.6875-0.20427 1.677-0.27302 2.199-0.0688 0.52194-1.7752 0.2595-3.792-0.5832-6.5343-2.7302-14.44 0.38565-10.197 4.0188 1.7196 1.4723 1.8675 1.9951 0.75836 2.6806-0.78679 0.48626-1.7889 0.44044-2.3362-0.10682-2.8919-2.8919-13.406 0.72411-17.214 5.9201-1.8194 2.4827 0.86892 3.4376 5.6475 2.0059 3.0681-0.91924 4.6158-0.92848 6.5675-0.0392 3.2598 1.4853 2.3041 3.4337-1.0573 2.1557-2.4989-0.95009-8.502 0.44825-8.502 1.9804 0 0.43205-0.9 1.0209-2 1.3086-1.1 0.28766-2 0.11514-2-0.38337 0-1.3642-3.7477-1.0893-6.7997 0.49861-2.7935 1.4534-7.8625 6.3571-7.121 6.8886 2.5344 1.8164 6.2778 2.5856 8.0272 1.6494 2.5867-1.3844 7.1118-0.83011 7.6947 0.94244 0.35797 1.0886-0.3246 1.239-3.1857 0.70229-3.2453-0.60883-3.9805-0.32453-6.7609 2.6146-1.7158 1.8137-2.8203 2.7544-2.4545 2.0903 0.83823-1.5217-4.7491-4.5313-7.6176-4.1033-5.1857 0.77383-7.8521 8.6439-3.9148 11.555l2.8803 2.1295 4.1994-2.0777c3.9159-1.9374 4.3116-1.9654 5.8625-0.41452s1.457 1.6219-1.3914 1.0522c-2.41-0.48199-3.7366-0.0371-6.2863 2.1084l-3.2317 2.7193-3.4503-1.8581c-3.6214-1.9502-9.8436-0.14801-11.138 3.2262-0.54517 1.4207 2.1443 6.8704 4.7944 9.715 2.02 2.1682 2.2827 3.4782 1.2417 6.1911-0.56542 1.4735-0.82219 1.3847-1.9334-0.66821-1.2792-2.3634-1.2844-2.3606-3.0654 1.6327l-1.784 4-0.56749-7.5c-0.91373-12.076-1.3867-12.082-8.6244-0.10222-2.7357 4.528-4.3935 5.0811-4.3031 1.4356 0.0582-2.3477 0.20007-2.5019 0.82749-0.89971 1.7272 4.4107 3.0793-3.8596 1.7875-10.934-0.67681-3.7062-0.61863-3.8574 0.79213-2.0589 0.83743 1.0676 1.5593 3.0926 1.6042 4.5 0.17747 5.5668 2.9881-4.029 3.596-12.277l0.60171-8.1641-2.6396 2.4243c-1.4518 1.3334-2.6419 2.9084-2.6446 3.5-0.007 1.6223-4.9176 7.2845-4.9591 5.7187-0.0209-0.78975-0.66297-1.1164-1.536-0.78138-1.1493 0.44102-1.4836-0.17692-1.4297-2.643 0.0591-2.7056 0.20726-2.8998 0.92971-1.2186 0.47269 1.1 0.92269 1.55 1 1 0.0773-0.55 0.50938-0.1 0.96015 1 1.2533 3.0584 3.3511-2.919 2.72-7.7502-0.27568-2.1103-0.0942-3.5057 0.41497-3.191 0.49768 0.30758 0.92289 1.3202 0.94491 2.2502 0.0851 3.5945 2.9345-3.7409 3.5771-9.2089 0.94257-8.0198-2.09-7.4191-4.8343 0.95755-0.71036 2.1683-1.6077 3.7174-1.9942 3.4424-0.38643-0.275-1.3377 0.3686-2.114 1.4302-1.3944 1.907-1.4236 1.907-2.4247 0-1.7229-3.2818-2.4452-8.1915-1.3085-8.894 0.67285-0.41584 1.0586 0.7122 1.0586 3.0959 0 3.5121 0.0932 3.6269 1.4682 1.809 1.1227-1.4844 1.4793-1.5882 1.5153-0.44113 0.0419 1.3333 0.15482 1.3333 1.0165 0 1.2786-1.9785 1.2605-6.6448-0.0352-9.0657-0.64231-1.2002-0.66788-1.9343-0.0674-1.9343 0.53229 0 1.2897 1.0125 1.6832 2.25 1.0972 3.4512 2.261-0.28174 2.3491-7.5352 0.0861-7.0842-2.9591-6.7548-5.1048 0.55219l-1.243 4.233-0.54489-6c-0.29969-3.3-0.90717-6.5625-1.35-7.25-1.4479-2.2481 1.0271-1.31 2.6385 1 1.5263 2.188 1.571 2.1233 1.622-2.3508 0.0654-5.7404-1.5837-10.634-4.0238-11.94-1.425-0.76264-1.7256-1.7-1.2722-3.9672 0.79156-3.9578-2.0928-8.7006-4.2185-6.9365-1.2021 0.99765-1.4337 0.56516-1.4368-2.6831-0.007-7.3574-5.2419-13.063-6.727-7.3316l-0.78795 3.0408-3.7651-5.7173c-5.3711-8.1559-2.9401-9.4623 2.5897-1.3918 1.638 2.3905 1.6941 2.401 1.6941 0.3151 0-6.3365-5.5634-12.795-7.7146-8.9554-1.1812 2.1082-1.2155 2.0908-1.25-0.63192-0.0426-3.3671-2.0661-7.5131-4.9331-10.108-2.1-1.86-2.13-1.86-2.13 0.21 0 2.8831-1.7113 3.6989-2.5061 1.1947-0.35756-1.1266-1.6275-2.9898-2.822-4.1404-1.503-1.4477-1.7869-2.2329-0.92188-2.5495 0.6875-0.25161 1.25-0.94 1.25-1.5298 0-1.6161-5.1088-7.9856-5.8281-7.2663-0.34436 0.34436-1.4193-1.5386-2.3888-4.1843-1.3245-3.6146-1.6169-3.9831-1.1763-1.4823 0.68768 3.9033-0.3421 10.454-1.5282 9.7205-0.45114-0.27881-1.0319-2.6538-1.2907-5.2778-0.25874-2.624-1.4419-6.7679-2.6292-9.2087-2.7952-5.7462-2.7216-6.661 0.37294-4.6333l2.5317 1.6589-1.6847-3.7938c-0.92659-2.0866-1.5998-5.8221-1.496-8.3011 0.14331-3.4231-0.40671-5.3143-2.2866-7.8624-2.0637-2.7972-2.387-4.1262-1.9445-7.9927 0.30777-2.6892 0.005-5.898-0.72056-7.6376l-1.2513-3-0.93964 5.3976c-1.067 6.129-2.6912 5.2995-2.7367-1.3976-0.0149-2.2-0.6915-6.475-1.5034-9.5-2.0291-7.5596-1.8443-8.1351 1.1238-3.5l2.5614 4-0.49835-3.5565c-0.82651-5.8985-3.5982-11.688-4.7525-9.9271-1.2327 1.8808-3.9545-1.2309-3.899-4.4575 0.0324-1.8822 0.15809-1.8443 1.4646 0.44113l1.4291 2.5 0.0354-2.5719c0.0602-4.3685-3.0211-12.12-4.5799-11.522-1.0803 0.41456-1.3846-0.72934-1.3846-5.2052 0-4.4351-0.55409-6.5519-2.4424-9.3308-1.6612-2.4446-2.2507-4.3581-1.843-5.9821 0.58016-2.3111 0.53565-2.3316-1.3863-0.6378-2.7613 2.4335-3.7473 2.1863-1.885-0.47251 1.7177-2.4524 2.1012-8.3229 0.60418-9.2481-0.52388-0.32378-1.6309 0.66216-2.46 2.191-1.8355 3.3846-1.861 3.1765-0.5264-4.2867 1.296-7.2472 4.2387-15.503 7.5559-21.198 1.366-2.3452 2.2295-4.6754 1.9187-5.1782-0.31075-0.5028 0.84751-3.0071 2.5739-5.5651 6.1298-9.0826 10.522-28.748 6.9175-30.976-0.53505-0.33068-1.4442-2.3516-2.0202-4.491-2.77-10.357-20.98-16.377-24.26-8.03-2.11 5.373-3.9 5.152-2.02-0.25 11.04-31.832-30.88-41.738-47.7-11.271-2.2 3.997-4.01 7.913-4.01 8.703 0 0.78967-0.60726 2.2662-1.3495 3.2813-1.2188 1.6668-1.3046 1.54-0.8865-1.3089 0.55562-3.7857 0.42278-3.8007-10.141-1.139-9.8382 2.4789-9.785 2.4839-5.9243-0.55903 5.3799-4.2405 2.2585-18.358-4.8746-22.047-12.441-6.4335-30.762 12.735-30.84 32.267-0.01 2.3917-0.32371 3.3375-0.8388 2.5255-0.96547-1.522-13.515 1.5413-18.032 4.4015-10.793 6.8347-14.857 17.338-10.134 26.186 2.7278 5.1095 7.004 10.104 7.0297 8.2102 0.0178-1.3134 0.13607-1.3169 0.95117-0.02802 0.78529 1.2418 1.0449 1.175 1.6596-0.42689 0.71277-1.8574 0.74513-1.8568 1.4835 0.02803 0.49607 1.2663 0.75485 0.21277 0.75485-3.0731 0-7.7694-1.2128-9.8868-3.1504-5.5-1.2922 2.9257-1.5593 3.1255-1.6275 1.2179-0.1228-3.4355 2.4799-8.9128 4.8338-10.173 2.387-1.2775 3.009 0.63032 0.89481 2.7445-0.91979 0.9198-0.69283 2.0742 1 5.0862 5.3044 9.4378 0.83644 19.792-12.292 28.487-2.1902 1.4505-4.7511 2.6373-5.691 2.6373-3.1262 0-3.0185 2.0117 0.14157 2.6437 5.2723 1.0545 2.2624 1.8563-6.9682 1.8563-10.317 0-10.498 0.10492-8.973 5.1966 0.64123 2.1402 0.97659 4.9965 0.74525 6.3474-0.46297 2.7034-0.24913 3.0141-3.0365-4.4122-3.8223-10.184-18.561-7.8318-20.332 3.2445-0.35949 2.2481-1.0839 3.8215-1.6097 3.4965-0.86358-0.53373-0.62995-2.7329 0.8043-7.5707 1.539-5.1912-16.108-7.0376-23.857-2.4962-23.865 13.986-2.2423 42.85 24.949 33.304 10.79-3.788 11.843-3.8612 21.955-1.5245 10.976 2.5364 11.263 2.423 8.4694-3.3483-3.5703-7.3753-2.27-15.413 3.1023-19.176 5.5665-3.8989 9.1693-1.054 15.802 12.477 4.3925 8.9615 5.702 10.208 7.917 7.5396 2.4435-2.9442 6.5958-3.5407 10.045-1.443l3.2084 1.9512 9.6554-3.4448c14.7-5.2445 43.167-21.177 55.123-30.85 5.8711-4.7505 8.1547-7.9966 4.0985-5.8257-1.0638 0.56935-2.7513 1.0067-3.75 0.97179-1.4701-0.0513-1.3874-0.23555 0.43426-0.96777 2.676-1.0756 2.9646-2.1733 0.5-1.9018-2.276 0.25067-8.4646-1.1858-7.8323-1.818 1.0245-1.0245-2.3567-3.2149-4.0934-2.6518-1.2865 0.41709-1.4458 0.31897-0.54043-0.33282 0.77088-0.55497 1.0028-1.6915 0.58043-2.8443-0.67455-1.8412-0.62128-1.8481 1.2973-0.16787 1.903 1.6666 3.3384 1.4612 3.3384-0.47787 0-0.49079-0.4176-0.63426-0.928-0.31881-0.51041 0.31545-1.2262-0.36586-1.5906-1.514-0.6421-2.0231-0.72925-2.0321-2.822-0.29105-1.1877 0.98807-1.5969 1.1559-0.90943 0.37303 0.6875-0.78291 1.2145-2.121 1.171-2.9735-0.0525-1.03-0.24816-1.1306-0.58333-0.3-0.27741 0.6875-1.0133 1.25-1.6353 1.25-0.64435 0-0.44037-0.69058 0.47409-1.605 1.1314-1.1315 1.4556-2.7194 1.0985-5.3818-0.27862-2.0772-0.0181-4.6175 0.57883-5.645 0.89594-1.5421 1.0907-1.0658 1.1158 2.7284 0.1044 15.781 23.263 16.037 43.53 0.4823l4-3.07-2.8646 3.4956c-1.5755 1.9226-4.5954 4.6757-6.7108 6.1181s-3.5638 2.9049-3.2187 3.25c0.91803 0.91802 9.1814 0.72182 13.695-0.32517 3.8937-0.90319 3.8972-0.90116 1.9121 1.084-1.0939 1.0939-3.6766 2.1457-5.7393 2.3374-2.0628 0.19171-4.7232 1.1852-5.9121 2.2079-3.59 3.075-8.52 6.316-9.63 6.316-0.57 0-1.04 0.35-1.04 0.78 0 0.42942-1.4625 1.3097-3.25 1.9561-4.0896 1.479-2.578 0.26155 7.6876-6.192l6.9376-4.3613-3.918-1.637c-4.11-1.714-6.46-0.581-6.46 3.11 0 0.70053-0.89552 1.753-1.99 2.3387-1.0945 0.58577-1.8944 1.3891-1.7775 1.7852 1.1187 3.7899-27.971 23.698-50.828 34.785-25.601 12.418-29.161 17.37-17.321 24.095 3.5999 2.0448 4.4369 2.193 5.8111 1.0293 0.88298-0.74774 5.6052-4.8156 10.494-9.0397 10.438-9.0191 21.757-17.655 27.224-20.769 5.0812-2.8947 3.5134-1.3146-5.1124 5.1525-3.85 2.8865-6.1 4.9786-5 4.649 16.639-4.985 47.365-18.665 51.037-22.723 2.1966-2.4272 4.3387-2.6234 2.2827-0.20912-0.81966 0.9625-2.0359 3.1-2.7027 4.75-0.66681 1.65-6.5686 15.948-6.5784 14.121-0.20459-3.8209 1.1644-5.5669 2.5536-9.316 2.0036-4.7795-1.7357-3.7038-8.4615 0.48113-6.2649 3.8982-15.373 8.1448-21.631 10.085-19.945 6.1839-22.757 7.6985-33.703 18.153l-8.9242 8.5236 3.2518 4.4756c1.7885 2.4616 4.003 7.176 4.9211 10.476 2.0867 7.501 2.734 8.2835 9.2328 11.162 8.7075 3.8573 9.6687 3.5342 18.065-6.0732 5.9957-6.8603 5.9411-7.3844-0.54511-5.232-16.978 5.6339-21.608 6.761-22.418 5.4574-0.44904-0.72261-0.49335-1.4082-0.0985-1.5236 6.8618-2.0049 25.359-6.5031 27.277-6.6332 7.9139-3.2785 29.14-30.407 28.51-32.439-0.79775-2.5135 1.3306-11.398 2.55-10.645 0.48844 0.30187 0.68862 1.5338 0.44484 2.7376s-0.72502 4.6574-1.0694 7.6748l-0.62619 5.4861 2.3158-2.127c3.0519-2.8032 12.788-8.7064 13.381-8.1133 0.25574 0.25575-1.9043 2.0414-4.8001 3.9682-7.5316 5.0112-18.779 15.801-35.853 34.396l-14.874 16.199 2.4812 1.6257c1.3646 0.89415 2.4812 2.0909 2.4812 2.6594s-1.0001 0.33313-2.2225-0.52306c-3.7538-2.6293-4.3343-1.7305-1.0936 1.6933 3.5727 3.7746 5.3177 6.8735 5.3124 9.4343-0.003 1.2914-0.56038 0.90284-1.9315-1.3458-1.337-2.1927-4.3235-4.3241-9.7463-6.9556-4.3002-2.0867-9.5057-5.0891-11.568-6.672-3.4279-2.6312-3.7994-2.7208-4.3335-1.0444-1.7948 5.6332-2.2837 5.7022-2.3613 0.33351-0.19554-13.52-13.209-35.797-19.501-33.383-0.71786 0.27546-2.517-1.9389-4.3247-5.3227-5.6595-10.594-8.7698-12.346-13.925-7.844l-2.8058 2.4504 2.7372 5.2291c3.1786 6.0724 3.1512 6.4667-0.24544 3.535-5.097-4.3993-10.617-13.828-13.994-23.9-3.1338-9.3486-10.212-11.592-13.047-4.135-1.745 4.5898-1.3392 5.4472 13.863 29.291 5.6176 8.811 4.6873 9.4042-10.553 6.7294-5.0647-0.88885-7.5558-0.95455-8.2916-0.21867-0.73588 0.73588-1.3144 0.62726-1.9255-0.36153-1.1624-1.8808-2.8393 4.3747-4.0734 15.196-1.095 9.6011-0.4922 10.74 5.8182 10.992 5.3128 0.21186 5.6476-0.21753 5.4878-7.039l-0.1336-5.7059 1.695 5.007c5.6727 16.757 19.819 29.178 32.258 28.324 4.9066-0.33663 4.9638-0.30838 2.845 1.4065-1.1892 0.9625-3.0123 1.75-4.0514 1.75-2.4685 0-2.4158 0.49949 1.0561 10.013 6.4134 17.573 18.304 27.784 34.737 29.83l6.8182 0.84914-4.4022 0.80597c-4.0362 0.73896-4.2466 0.91974-2.5309 2.1743 7.173 5.245 23.827 2.2532 35.021-6.2916 3.3406-2.55 4.2352-2.919 3.4304-1.4153-5.881 10.989 23.772-17.352 33.445-31.966 7.204-10.883 19.472-39.749 22.024-51.822 1.3099-6.1963 1.6809-2.3906 0.51603 5.294-2.2097 14.577-5.9532 27.624-10.52 36.666-2.48 4.88-4.5 9.71-4.5 10.74 0 7.9 12.06 40.12 15.02 40.12 0.53773 0 0.9777 0.81515 0.9777 1.8114 0 0.99629 0.7875 2.7075 1.75 3.8026 0.9625 1.0952 3.2519 4.8925 5.0876 8.4386 9.36 18.081 13.555 25.639 15.271 27.512 1.0403 1.1354 1.8914 2.5604 1.8914 3.1667 0 0.60622 0.3568 1.2522 0.79288 1.4356 0.43608 0.18333 2.0544 4.6083 3.5962 9.8333s4.5752 14.225 6.7407 20c3.1955 8.5218 4.0279 12.208 4.418 19.565l0.48071 9.0655-8.4932 20.285c-4.6713 11.157-9.2902 22.774-10.264 25.815-2.0604 6.434-3.5488 7.3414-15.225 9.2804-16.367 2.7182-35.19-1.8079-52.352-12.588-8.3344-5.2354-6.4128-5.2417 2.9014-0.01 12.228 6.8687 31.005 11.243 42.457 9.8905 19.336-2.2834 17.059-0.25893 26.779-23.804 3.8601-9.35 7.9159-19.091 9.0131-21.646l1.9948-4.6462-5.666 1.9914c-13.159 4.6251-35.917 6.4341-47.715 3.7928-13.493-3.0207-39.924-14.62-48.807-21.418-2.6666-2.0408-4.9758-3.5672-5.1318-3.3921-3.4497 3.8743-2.9625 19.831 0.96925 31.745 1.9191 5.8153 3.9574 13.071 4.5296 16.124 3.6881 19.678 37.967 41.119 68.231 42.678 10.297 0.53042 13.056 1.4039 8.75 2.7705-2.8144 0.89327-2.4888 2.1959 1 4 2.9083 1.5039 3.0005 1.4818 3.0153-0.72432 0.0124-1.8361 0.20258-1.9859 0.98469-0.77568 0.53316 0.825 0.97627 3.1609 0.98469 5.191 0.0219 5.2833 1.7021 5.5932 3.1878 0.58788 1.3203-4.4484 7.2775-16.797 6.4061-13.279-0.2725 1.1-1.6833 5.825-3.1352 10.5-1.6689 5.3739-2.8385 11.919-3.1802 17.797-0.6132 10.547-3.4512 13.455-4.0591 4.1593-0.50295-7.6901-16.35-15.752-29.685-15.101-3.8484 0.18765-14.769 11.303-16.557 16.852-0.67227 2.0866-1.5637 4.2437-1.981 4.7937-3.3487 4.4139-5.4807 19.495-5.4807 38.768 0 19.411-0.84897 23.153-3.1628 13.938-0.77303-3.0786-1.3367-2.7368-7.7823 4.7191-5.0054 5.7899-5.5534 6.878-5.5396 11 0.0324 9.6887 4.7581 9.7392 14.735 0.15751 1.2375-1.1885 2.25-1.7817 2.25-1.3182 0 1.1544-5.9887 6.7326-8.75 8.1503-1.2375 0.63535-2.25 1.5997-2.25 2.143 0 0.54332 1.2032 0.19952 2.6737-0.76402 2.0021-1.3118 2.7789-1.4363 3.0925-0.49568 0.28181 0.84542 2.1053 0.0842 5.5763-2.3279l5.1575-3.5841-4.5 4.0269c-2.475 2.2148-4.005 4.0403-3.4 4.0567 1.8108 0.0491 8.7554-5.4052 12.845-10.088 2.8858-3.3049 3.6932-3.829 3.2846-2.1321-0.64272 2.669 0.74327 2.9853 2.1908 0.5 0.93004-1.5968 1.0219-1.6026 1.0497-0.067 0.0167 0.92568-1.9946 3.3424-4.4696 5.3705s-4.5 4.2707-4.5 4.9836c0 0.71291-1.9125 1.9732-4.25 2.8006-3.3198 1.1751-3.7028 1.5165-1.75 1.5596 1.375 0.0304 5.1765-1.0451 8.4479-2.3898 6.2513-2.5698 8.9899-2.8221 3.3379-0.30746-8.452 3.7603-8.6036 3.8611-4.7858 3.1818 1.925-0.34249 4.7793-1.2767 6.3429-2.076 1.5636-0.79932 3.0931-1.2031 3.3989-0.89734 0.82915 0.82916-7.8633 4.5442-10.692 4.5696-1.6135 0.0145-2.1127 0.3593-1.462 1.01 0.95685 0.95685 14.776-2.6566 17.736-4.6376 0.69879-0.46771 0.41197-0.0629-0.63738 0.89963-4.2221 3.8726 1.1584 1.6388 5.7163-2.3732 5.7251-5.0395 7.0593-4.5007 2.1931 0.88561-1.9579 2.1671-3.301 4.199-2.9848 4.5152 0.7777 0.7777-5.0601 3.729-7.3112 3.6962-1.0272-0.015-0.0829-0.88044 2.2003-2.0165 2.2-1.0946 3.1707-1.7559 2.1571-1.4695-1.0136 0.28641-3.0386 0.78142-4.5 1.1-4.585 0.99954-5.3016 1.3693-4.6615 2.4052 0.92759 1.5009 7.7583 1.2167 11.85-0.49294zm-19.35-9.97c0-0.26088 1.4625-1.1831 3.25-2.0495l3.25-1.5752-2.3608 2.0495c-2.212 1.9203-4.1392 2.6537-4.1392 1.5751zm-10-5.6681c2.475-2.4044 4.6922-4.2513 4.9271-4.1042 0.66824 0.41855-5.1983 6.3011-7.4271 7.4473-1.1 0.56571 0.025-0.9387 2.5-3.3431zm-12-0.36c1.2918-1.375 2.5736-2.5 2.8486-2.5s-0.55688 1.125-1.8486 2.5c-1.2918 1.375-2.5736 2.5-2.8486 2.5s0.55688-1.125 1.8486-2.5zm226-110.93c0-0.2378 1.5785-5.9689 3.5078-12.736 3.5591-12.484 8.1482-34.04 8.799-41.332 0.31799-3.5629 0.37538-3.4383 0.52511 1.1395 0.32 9.61-9.77 53.36-12.31 53.36-0.28 0-0.52-0.19-0.52-0.43zm16.51-22.57c0.31153-1.925 1.2232-10.7 2.026-19.5 1.5854-17.379 2.5127-24.782 3.0384-24.256 0.6877 0.68771-3.6143 42.665-4.6032 44.916-0.8811 2.0061-0.94686 1.8406-0.4612-1.1603zm5.6029-21.75c-0.0638-2.8875 0.24364-5.25 0.6832-5.25s0.63862 1.6875 0.44236 3.75c-0.61198 6.4311-1.005 6.9549-1.1256 1.5zm-85.226-5.6455c7.2464-4.0164 6.3714-12.749-1.3899-13.871-2.9235-0.42277-2.9115-0.43766 0.46816-0.58367 4.2222-0.1824 8.0318 3.6364 8.0318 8.0512 0 3.5226-3.9818 7.8133-7.2046 7.7636l-2.2954-0.0354 2.3899-1.3246zm-8.2-2.35c-0.23864-0.4125-0.0718-1.65 0.3707-2.75 0.7024-1.746 0.81351-1.6508 0.87486 0.75 0.0693 2.713-0.3985 3.4642-1.2456 2zm94.55-2.25c0-1.925 0.2058-2.7125 0.45733-1.75 0.25152 0.9625 0.25152 2.5375 0 3.5-0.25153 0.9625-0.45733 0.175-0.45733-1.75zm-99.73-1.39c2.2-0.74173 4.1875-1.1834 4.4167-0.98157 0.87246 0.76851-0.80847 1.4684-4.5428 1.8914l-3.8739 0.43881zm-4.7673-4.8643c0.72-5.63 1.27-6.05 1.27-0.98 0 2.2592-0.40719 4.3593-0.90487 4.6669-0.51626 0.31906-0.67191-1.2661-0.36242-3.691zm9.27-0.11c0-1.5366-1.0431-3.2538-2.75-4.5273-1.5125-1.1284-2.167-2.066-1.4546-2.0834 3.3443-0.0818 7.6646 6.9479 5.2046 8.4683-0.56381 0.34845-1-0.46181-1-1.8576zm14-5.82c0-1.4176-0.675-3.1378-1.5-3.8224-0.825-0.68469-1.5-0.81202-1.5-0.28296s-1.2375 1.4805-2.75 2.1144c-2.7114 1.1363-2.7184 1.1298-0.5-0.46146 3.0382-2.1793 2.8241-3.536-0.89177-5.6512-1.721-0.97968-2.8572-2.0531-2.5249-2.3855 0.33233-0.33233 1.6308 0.11642 2.8854 0.99722 6.4065 4.4975 9.7494 9.1013 7.9299 10.921-0.87 0.87-1.15 0.51-1.15-1.43zm8.7441-2.2643c0.90505-4.7345-0.45226-7.3948-3.9974-7.835-3.2225-0.40007-3.219-0.40428 0.46803-0.56312 5.0446-0.21733 8.709 9.064 4.1663 10.553-0.70441 0.23082-0.94037-0.56732-0.63696-2.1545zm-54.47-2.56c0-2.475 0.19502-3.4875 0.43337-2.25 0.23836 1.2375 0.23836 3.2625 0 4.5-0.23835 1.2375-0.43337 0.225-0.43337-2.25zm28.38 0.94142c-1.46-1.15-2.65-2.52-2.65-3.05 0-0.56556 0.5188-0.52128 1.25 0.10669 0.6875 0.59044 2.1493 1.6964 3.2484 2.4577 1.0991 0.76128 1.7303 1.6522 1.4027 1.9799-0.32767 0.32767-1.7895-0.34319-3.2484-1.4908zm102.54-1.44c-0.0204-1.65 0.18706-2.4461 0.46099-1.769 0.27392 0.67703 0.29059 2.027 0.0371 3-0.25354 0.97297-0.47766 0.41903-0.49804-1.231zm-88.95-5.75c0.22642-0.6875 1.5014-1.3757 2.8333-1.5294 2.3451-0.27057 2.3603-0.23106 0.48054 1.25-2.3505 1.852-3.8741 1.9804-3.3139 0.2794zm-7.8039-2.2182c-1.5519-1.1738-1.6285-1.4746-0.38226-1.5 0.85738-0.0175 2.4324 0.62889 3.5 1.4364 1.5519 1.1738 1.6285 1.4746 0.38226 1.5-0.85738 0.0175-2.4324-0.62889-3.5-1.4364zm14.098-3.5948c0.36134-0.58466-0.1746-2.0001-1.191-3.1455-1.8224-2.0537-1.8168-2.0662 0.40204-0.90181 2.2588 1.1853 3.1736 5.1103 1.191 5.1103-0.58246 0-0.76337-0.47836-0.40204-1.063zm5.4365-1.4666c-1.3082-1.5763 0.33792-7.4904 1.7045-6.1238 0.33278 0.33278 0.02 1.31-0.69506 2.1716-1.5574 1.8765-0.31035 3.5062 2.866 3.7455 2.9337 0.22099 2.7343 1.7363-0.22848 1.7363-1.3076 0-2.9488-0.68833-3.647-1.5296zm10.02-4.11c0-0.90186-0.7875-2.2376-1.75-2.9682-1.6357-1.2417-1.638-1.3305-0.0352-1.3602 0.94315-0.0175 2.1806 0.83862 2.75 1.9025 1.31 2.45 1.33 4.07 0.04 4.07-0.55 0-1-0.73789-1-1.6398zm-19.559-3.8284c-1.5519-1.1738-1.6285-1.4746-0.38226-1.5 0.85738-0.0175 2.4324 0.62889 3.5 1.4364 1.5519 1.1738 1.6285 1.4746 0.38226 1.5-0.85738 0.0175-2.4324-0.62889-3.5-1.4364zm10.106-2.5805c1.8132-1.8925 3.0756-2.5843 3.329-1.8242 0.2245 0.67351-0.60554 2.0454-1.8445 3.0487-3.6336 2.9423-4.6631 2.0932-1.4845-1.2246zm8.8506-4.4515c-2.0414-1.5452-1.0903-1.8264 2.0363-0.60199 1.1158 0.43697 1.4954 1.0281 0.89733 1.3977-0.56997 0.35226-1.8901-0.006-2.9336-0.79569zm5.6-1.94c0-3.064 0.56994-3.3116 1.2895-0.56002 0.28751 1.0995 0.115 2.251-0.38337 2.559-0.5 0.31-0.91-0.59-0.91-2zm-11.54-3.9645c-1.8079-1.322-1.7665-1.3757 0.69681-0.90485 3.5651 0.68152 6.7297-1.2124 8.3853-5.0184 0.76585-1.7606 1.3969-2.4138 1.4186-1.4683 0.13909 6.0516-6.2157 10.525-10.501 7.3916zm17.79-4.63c-1.2375-0.49742-2.25-1.1439-2.25-1.4366 0-1.0495 2.6543-0.50456 4.5589 0.93598 2.1698 1.6412 1.1037 1.8723-2.3089 0.50064zm6.0866-1.2776c1.0101-0.65515 2.4642-1.6412 3.2313-2.1912 2.4936-1.7878-0.11881-3.7504-5.7068-4.2874-5.7233-0.54994-4.4803-2.0034 1.8322-2.1424 5.2513-0.11559 8.575 6.6454 4.3724 8.8945-2.9525 1.5801-6.2179 1.3405-3.7291-0.27363zm36.643-3.2154c-0.69572-0.83829-0.99522-1.7939-0.66557-2.1235 1.0241-1.0241 3.6856 0.50424 3.6856 2.1163 0 1.9586-1.3978 1.962-3.0201 0.007zm-20.713-0.71437c3.7988-1.5919 2.9617-2.9752-2.8467-4.7044-3.6931-1.0995-4.3548-1.5566-2.653-1.8328 3.492-0.56665 9.062 1.6627 9.7762 3.9129 0.78581 2.4759 0.76342 2.4961-3.5435 3.2065-3.4196 0.56404-3.4364 0.55067-0.73301-0.5822zm-6.6546-2.2302c-0.92-1.39-1.22-2.53-0.68-2.53 1.1087 0 3.4672 3.9244 2.7747 4.6168-0.24506 0.24506-1.1919-0.69348-2.1041-2.0856zm-95.516-3.3133c-0.75105-1.8051-1.1164-3.5312-0.81196-3.8356 0.85801-0.85801 2.8828 3.5146 2.5098 5.4201-0.22975 1.1737-0.75371 0.68473-1.6978-1.5845zm113.9 1.28c0-0.825-0.5625-1.5305-1.25-1.5677s-0.18604-0.57895 1.1144-1.2038c2.5465-1.2237 5.7918 1.4008 4.4389 3.5898-0.34796 0.56301-0.99405 0.0467-1.4358-1.1473-1.009-2.7276-2.8643-2.8746-2.1573-0.17097 0.28766 1.1 0.24553 2-0.0936 2-0.34 0-0.62-0.68-0.62-1.5zm-30.557-4.9182c-2.4606-1.7992-1.2996-3.1339 1.309-1.5048 1.1636 0.72669 3.0708 0.93339 4.742 0.51393 3.2985-0.82787 2.3073-2.2518-1.9937-2.8642-2.7948-0.3979-2.7519-0.43736 0.62756-0.57695 5.329-0.22011 6.8957 2.1932 2.7624 4.2552-3.926 1.9586-4.9764 1.9835-7.4473 0.17676zm18.866 0.22378c-1.2054-0.58251-2.4623-1.7643-2.793-2.6263-0.50927-1.3271-0.3147-1.3077 1.2704 0.12679 1.0295 0.93166 2.5973 1.6939 3.484 1.6939 0.88674 0 1.8904 0.45 2.2303 1 0.78793 1.2749-1.357 1.1754-4.1917-0.19446zm2.7073-1.918c-2.65-1.42-2.99-1.88-1.45-1.88 2.158 0 6.272 2.5073 5.424 3.3057-0.27414 0.25808-2.0664-0.38012-3.9828-1.4182zm-106.02-13.66c0-1.5276-0.7209-3.8067-1.602-5.0647-2.3015-3.2858-1.0306-3.7775 1.488-0.57564 2.1629 2.7497 2.913 8.4178 1.114 8.4178-0.55 0-1-1.2499-1-2.7775zm-6.4333-15.347c-1.8097-4.5229-1.2259-6.4972 1.015-3.4325 1.2543 1.7154 2.0481 7.5573 1.0268 7.5573-0.21528 0-1.1341-1.8562-2.0418-4.1248zm-17.57-23.13c-3.4697-5.8878-3.5129-6.0872-1.031-4.7589 1.8074 0.96726 5.031 6.4038 5.031 8.4845 0 1.6689-1.8199-0.0261-4-3.7256zm-10.23-10.99c-3.6704-5.6588-4.034-7.3936-0.83492-3.9842 1.6854 1.7962 3.0643 3.9337 3.0643 4.75 0 2.0439-0.5236 1.8641-2.2294-0.76578zm-15.622-34.5c-0.77-1.46-4.15-16.16-4.15-18.06 0-2.685 2.3567 2.9956 4.3812 10.56 2.2437 8.384 2.1318 11.985-0.23287 7.4967zm-199.65-69.88c-2.7618-1.0287-5.6625-1.2895-9.3707-0.8425-4.7056 0.56719-5.201 0.46452-4-0.82902 0.98425-1.0601 1.5779-1.1551 2.1054-0.33705 0.41648 0.64588 0.74132 0.70044 0.75 0.12599 0.008-0.55735 2.2653-1.0404 5.0153-1.0735s5 0.28461 5 0.70593c0 0.42133 0.9 0.59273 2 0.38089s2-0.006 2 0.45808c0 0.46378 1.6875 1.2914 3.75 1.8392l3.75 0.99599-3.5 0.0329c-1.925 0.0181-5.3-0.63755-7.5-1.457zm-7.419-11.218c-2.76-5.16-0.77-11.15 3.72-11.15 5.3935 0 10.008 5.7968 7.0044 8.8-1.6525 1.6525-2.8 1.5024-2.8-0.36642 0-1.1189-0.78573-1.476-2.75-1.25-2.0577 0.23677-2.7576 0.8694-2.78 2.5131-0.043 3.1422-1.1312 3.8049-2.3889 1.4547zm143.92-21.55c0-0.23613 3.4875-2.4755 7.75-4.9764s9.2125-5.5095 11-6.6857 3.2461-1.7569 3.2412-1.2904c-0.005 0.46651-2.5923 2.4905-5.75 4.4978-6.15 3.914-16.24 9.164-16.24 8.454zm12.139-3.0768c1.5464-1.5464 16.848-11.316 16.277-10.392-0.42215 0.68304-0.14967 0.93284 0.69449 0.63668 0.76406-0.26805 1.3217-1.2564 1.2392-2.1964-0.0825-0.93997 0.1113-1.4477 0.43067-1.1284 0.31936 0.31937 1.9359-0.66313 3.5922-2.1833l3.01-2.757-1.7585 2.816c-0.96719 1.5488-2.5162 3.7427-3.4422 4.8754-2.13 2.613-13.07 10.809-14.42 10.809-0.55865 0 1.5158-1.8756 4.61-4.168 3.1-2.292 5.63-4.573 5.63-5.068 0-0.49507-1.3888 0.14302-3.0862 1.418-6.3695 4.7843-15.414 9.9851-12.775 7.3456zm-9.0558-4.8514c0.23-0.171 2-1.333 3.92-2.575l3.5-2.2588-3 2.5777c-1.65 1.4177-3.4125 2.5799-3.9167 2.5826-0.50416 0.0027-0.72916-0.14076-0.5-0.31887zm38.92-10.514c0-0.46476 0.96966-1.7023 2.1548-2.75l2.16-1.905-1.77 2.75c-1.83 2.836-2.54 3.372-2.54 1.905zm-71.707-3.1244c-0.11395-1.631 0.18158-3.2057 0.65674-3.4994 0.47516-0.29367 0.61001 0.43705 0.29967 1.6238-0.40938 1.5655-0.21914 1.9445 0.69302 1.3807 0.98778-0.61048 1.014-0.32245 0.12234 1.3436-1.4566 2.7217-1.5246 2.6892-1.7718-0.84875zm22.738-26.704c-0.0495-1.9078 4.6835-6.9536 10.265-10.943 2.8627-2.0463 5.7582-4.3931 6.4344-5.2151 1.02-1.243 6.27-2.696 6.27-1.737 0 0.16268-1.9125 1.5933-4.25 3.1791-7.3488 4.9856-16.716 12.508-17.722 14.232-0.53191 0.91122-0.98079 1.1288-0.99751 0.48349zm-5.78-5.989c-6.1991-2.5014 2.655-29.179 11.297-34.039 15.817-8.8952 27.874 7.2006 14.398 19.221l-2.21 1.98 1.6097-3.1479c6.4868-12.686 3.1842-20.616-7.4288-17.839-8.8375 2.3126-17.233 12.59-9.5526 11.694 7.1414-0.83372 10.079 8.6743 4.9611 16.059-3.7698 5.4398-8.8181 7.7858-13.066 6.0719zm12.75-16.55c0-0.984-0.21-1.788-0.46-1.788-0.66621 0-5.5495 8.5105-5.5015 9.5879 0.08 1.701 5.96-6 5.96-7.8zm-64.83 13.898c-5.25-5.593-1.02-18.348 6.33-19.099 5.72-0.585 3.94-7.587-1.93-7.587-9.2242 0-13.378 13.658-8.0328 26.414 0.59584 1.4219 0.47502 1.7119-0.46992 1.1279-6.0301-3.7268-5.0984-22.151 1.3675-27.04 11.043-8.3506 18.67 1.595 13.484 17.583-3.6186 11.155-6.3163 13.315-10.745 8.6007zm3.3796-14.465c-1.6592-1.6592-2.8363 1.8516-1.5096 4.5023l1.39 2.7771 0.35338-3.3461c0.19437-1.8404 0.0892-3.6104-0.23381-3.9333zm21.609 406.22c21.977-7.7539 22.933-30.991 3.7147-90.272-3.0779-9.4941-1.6004-8.4912 2.6704 1.8127 4.7436 11.444 5.4525 11.838 5.4525 3.026 0-4.2339 0.5828-8.2357 1.4411-9.8955 1.2548-2.4266 1.2548-3.1459 0-5.5646-0.91-1.76-1.44-5.79-1.44-10.97v-8.1884l-4.25-4.3112c-33.984-34.474-59.573-19.423-56.291 33.107l0.72613 11.621 3.6572 0.67479c9.2159 1.7004 27.885 11.361 36.657 18.969 4.6829 4.0613 3.4471 4.6761-1.9869 0.98847-30.939-20.996-67.669-25.117-58.049-6.5134 5.7881 11.193 22.258 11.907 31.271 1.3564 3.7098-4.3429 4.3609-3.2094 1.0115 1.7608-6.685 9.9198-26.422 11.094-33.429 1.9887-1.7568-2.2827-3.4429-0.10209-4.0439 5.2299-1.467 13.016 13.558 16.064 20.866 4.2334 1.5432-2.4984 1.8537-2.661 1.8568-0.97251 0.0134 7.2617-15.365 13.686-21.555 9.0043-3.01-2.28-3.44-1.88-3.44 3.23 0 7.894 6.5353 12.986 13.36 10.41 4.5612-1.7216 4.3326-0.62052-0.29497 1.4212-18.279 8.0645 41.802 35.012 62.097 27.851zm-59.34-32.08c-0.24-0.47 0.12-2.88 0.79-5.36l1.226-4.5 0.0652 4c0.0638 3.9165-1.2313 7.5534-2.0856 5.8568zm329.48 21.104c2.2595-7.3378 2.1183-9.2705-0.21623-2.9604-1.0174 2.75-2.1743 5.7875-2.5709 6.75-0.39658 0.9625-0.31551 1.75 0.18015 1.75s1.6688-2.4928 2.607-5.5396zm22.362-45.729c-0.27393-0.67703-0.48137 0.11903-0.46099 1.769 0.0204 1.65 0.2445 2.2039 0.49804 1.231 0.25354-0.97297 0.23687-2.323-0.0371-3zm-181.92-17.3c3.4346-0.77122 7.7096-2.0133 9.5-2.7603l3.2552-1.3581-0.66429-10.408c-0.58307-9.1352-1.3935-12.542-6.6289-27.867-6.4274-18.814-6.5622-19.002-12.044-16.782-6.3064 2.5537-13.488 4.6078-18.163 5.1948-2.475 0.31077-6.975 1.2395-10 2.0638-19.798 5.3949-44.532 4.9945-59.086-0.95631-1.3623-0.55702-1.5226 0.11521-1.1369 4.7666 0.27904 3.3648 0.0276 5.6756-0.66407 6.103-0.61 0.39-1.11 3.35-1.11 6.64v5.942l6.3194 5.9769c22.333 21.122 58.747 30.568 90.425 23.455zm-49.24-51.84c11.152-1.9647 23.338-5.1736 32.348-8.5185 12.165-4.5159 11.949-4.4874 8.1516-1.0762l-3.5 3.1443 4.5-1.73c2.475-0.95152 4.6196-1.814 4.7658-1.9165 0.42374-0.29733-8.7257-17.883-16.283-31.296-5.8713-10.421-7.2445-12.23-8.9587-11.8-1.9894 0.49913-1.9909 0.48281-0.0834-0.94234 1.653-1.235 1.6954-1.4503 0.28518-1.4503-0.91077 0-2.1376 0.9-2.7263 2s-1.7454 2-2.5704 2-2.5279 0.67352-3.7843 1.4967c-19.75 12.941-61.604 18.963-76.75 11.044-2.7-1.42-4.9-2.42-4.9-2.24 0 29.404 31.317 48.003 69.5 41.276zm-27-39.528c14.2-2.4908 26.036-6.5873 41.121-14.232l6.1209-3.102-3.5122-7.6017c-4.3949-9.5122-7.8997-19.738-8.7824-25.625-0.92075-6.14-1.5127-6.1832-5.9-0.43018-6.2802 8.2351-17.083 17.478-27.863 23.84-5.6015 3.3057-11.985 7.3254-14.185 8.9326-12.365 9.0333-23.274 9.3868-31.636 1.0252-4.9791-4.9791-5.3746-4.6612-2.954 2.3743 2.841 8.2574 3.7505 9.5492 8.3735 11.893 2.3191 1.1757 4.443 2.4865 4.7198 2.913 1.5325 2.3614 21.067 2.3688 34.497 0.0131zm-246.55-10.74c-0.67816-2.1037-1.3922-4.4184-1.5869-5.1438-0.21999-0.81996-1.1026-1.0813-2.3329-0.69082-5.2382 1.6625-11.336-4.2917-12.62-12.324-0.3556-2.2238-1.1997-4.2555-1.8757-4.5149-5.0506-1.9381 5.104 18.915 11.137 22.87 8.016 5.2555 9.0276 5.2282 7.2787-0.19694zm12.458-5.3435 5.3389-4.0309-1.3298-3.7252c-1.6-4.48-1.789-8.87-0.418-9.72 0.55-0.33992 1-1.3944 1-2.3434 0-0.94896 1.4625-2.576 3.25-3.6157s3.475-2.1534 3.75-2.475c0.275-0.32157 2.3-1.8207 4.5-3.3314 7.598-5.2174 17.038-12.85 25.921-20.958 2.2435-2.0478 4.4746-3.7353 4.9579-3.75 0.48334-0.0147 2.5885-1.4892 4.6782-3.2767 2.0896-1.7875 5.0692-4.2392 6.6212-5.4483 28.041-23.321 1.5772-1.0379 29.303-24.802 0.0509-0.55 5.9095-5.275 13.019-10.5 13.028-9.5744 13.986-10.614 11.8-12.8-2.2195-2.2195-2.3008-2.1837-20.8 9.16-3.575 2.1922-8.975 5.5627-12 7.4901s-4.972 2.8621-4.3267 2.0771c0.64529-0.78494 7.4992-5.2522 15.231-9.9272 14.07-8.5071 16.552-11.152 11.071-11.794-1.6608-0.19462-4.36 1.0521-7.9914 3.6911-8.1824 5.9463-24.522 16.813-27.934 18.577-2.5315 1.3091-2.9079 1.9827-2.4334 4.355 1.3201 6.6007-8.4408 11.979-19.092 10.519-4.478-0.62-4.52-0.59-4.52 2.32 0 4.421-1.8584 5.9526-8.8124 7.2629-4.5954 0.86586-7.6716 2.2181-11.309 4.9712-2.7482 2.08-8.6826 5.9421-13.188 8.5824-4.505 2.64-10.441 6.24-13.191 8-7.5777 4.8544-12.483 7.5327-30.833 16.836l-16.833 8.5341 7.4509 5.5102c7.796 5.77 10.715 10.29 10.715 16.59 0 4.502-1.7409 4.532-2.4993 0.043-0.71124-4.2098-1.3461-4.7589-3.2736-2.8314-3.1203 3.1203-10.147-5.3491-10.205-12.3-0.012079-1.4452-0.76757-3.2452-1.6789-4-6.043-5.0055 1.1234 13.644 7.8304 20.378 5.7824 5.8053 6.1435 5.8176 12.195 0.41699l4.8554-4.333-1.6218-3.1361c-0.89196-1.7249-1.9906-5.8335-2.4415-9.1304l-0.81976-5.9942 8.5795-5.7682c4.7187-3.1725 9.3075-6.2265 10.197-6.7866 0.88975-0.56011 2.9148-1.8664 4.5-2.9029 1.586-1.04 7.158-4.67 12.383-8.07 10.965-7.1288 28.12-18.591 34.859-23.292 9.2747-6.47 12.338-8.3992 12.723-8.0136 0.44726 0.44726-0.51336 1.1781-17.631 13.413-6.848 4.9-17.176 11.95-22.951 15.69-5.775 3.7309-15.54 10.065-21.699 14.077-6.1597 4.0113-12.572 7.8619-14.25 8.5569-3.571 1.4792-3.8777 2.6237-0.95188 3.5523 1.1543 0.36636 2.8624 1.4092 3.7957 2.3174 0.93333 0.9082 3.9296 3.5262 6.6583 5.8178 5.0463 4.2378 8.4328 11.323 7.0876 14.829-1.3477 3.5121 0.52448 4.8068 3.0352 2.0991 1.3167-1.42 4.7965-4.3958 7.7329-6.6127zm21.258-58.648c-1.3106-1.3106-0.63574-2.5354 1.0422-1.8915 1.132 0.43439 2.306-0.12026 3.4778-1.643 1.4308-1.8594 1.7731-1.9751 1.7911-0.60548 0.03331 2.5364-4.7662 5.6849-6.3111 4.14zm17.333-1.11c0-2.3957 5.7761-5.8395 7.2769-4.3387 0.79543 0.79543 0.44816 1.7868-1.2645 3.6098-2.762 2.94-6.01 3.33-6.01 0.73zm5.5589-1.6838c1.6308-1.2334 1.6809-1.4733 0.31357-1.5-0.89515-0.0175-2.1878 0.6432-2.8724 1.4682-1.5956 1.9226 0.03233 1.9428 2.5589 0.0318zm8.0913-7.2889c-0.72414-1.1717 0.45246-2.7342 3.1147-4.1364 2.4139-1.2713 4.55 1.0527 2.6179 2.8482-1.4538 1.3511-5.1767 2.1876-5.7326 1.2881zm4.9786-2.9475c-0.83-0.83-3.63 0.49-3.63 1.7 0 0.73956 0.63946 0.72434 2.0856-0.0496 1.1471-0.61391 1.8415-1.3603 1.5431-1.6587zm7.87-6.3c-0.33992-0.55 0.0284-1 0.81854-1 0.79011 0 1.9927-0.67005 2.6723-1.489 0.67967-0.81894 1.7078-1.1972 2.2848-0.84066 0.63599 0.39307 0.15402 1.3731-1.2241 2.489-2.57 2.08-3.66 2.28-4.55 0.84zm-43.5 82.62c0-4.9852-3.0389-8.7054-6.57-8.043-2.6698 0.50086-4.014 0.21117-5.6155-1.2103-2.066-1.84-2.085-1.83-1.046 0.13 2.725 5.14 13.232 12.39 13.232 9.12zm13.038-10.104c7.6688-5.8447 8.1022-6.3885 6.8925-8.6488-3.0487-5.6966-1.3089-10.14 6.8198-17.415 4.2625-3.8153 13.6-12.64 20.75-19.611 17.38-16.944 22.992-22.243 30.975-29.248 4.5075-3.9554 7.3789-7.4215 8.6984-10.5 2.51-5.86 4.56-8.1 7.4-8.1 2.4 0 7.43-5.14 7.43-7.6 0-2.6139-5.1673-3.8052-6.9554-1.6035-0.8495 1.0459-5.1446 4.6176-9.5446 7.937s-8.955 6.8752-10.122 7.9016c-6.5368 5.7486-23.153 19.697-29.383 24.666-0.82762 0.6601-5.7776 4.6008-11 8.7572s-12.827 10.231-16.899 13.5c-16.395 13.161-19.89 15.839-26.846 20.571-7.8494 5.3402-8.5864 6.498-4.75 7.4608 1.375 0.3451 2.5 1.0287 2.5 1.519 0 0.49037 0.46822 0.89159 1.0405 0.89159 4.5802 0 11.112 9.1334 11.211 15.676l0.07025 4.6472 2.6269-2.94c1.4448-1.617 5.5349-5.1564 9.0892-7.8652zm32.962-54.96c0-0.79254 0.44485-1.7159 0.98855-2.0519 0.59097-0.36524 0.71839 0.093 0.31683 1.1395-0.56082 1.4615-0.14617 1.3762 2.5114-0.51615 1.75-1.25 3.18-1.81 3.18-1.25 0 1.25-3.99 4.12-5.72 4.12-0.71 0-1.28-0.65-1.28-1.44zm17-14.502c0-2.1886 3.5294-5.0567 6.2225-5.0567 2.4686 0 2.2199 2.2358-0.53696 4.8257-2.9 2.72-5.69 2.83-5.69 0.23zm5-2.5567c1.5838-1.9084 0.0985-1.889-2.4411 0.0318-1.554 1.1754-1.6282 1.4682-0.37244 1.4682 0.86277 0 2.1289-0.675 2.8136-1.5zm10.75-8.1893c-2.2638-0.59159-2.2304-2.5659 0.0787-4.6557 2.5777-2.3328 3.8516-2.0642 1.6657 0.35114-2.4652 2.724-1.1902 3.6897 1.4222 1.0772 1.199-1.199 2.0698-1.5527 2.0515-0.83333-0.0329 1.2922-2.3892 4.8391-3.0784 4.634-0.21437-0.0638-1.1773-0.3218-2.1398-0.57333zm-39.75 82.47c0-3.9725-3.3047-9.6907-5.0582-8.7523-2.3529 1.2592-6.6535 1.2443-7.4385-0.0258-0.33809-0.54704-1.5574-1.4991-2.7095-2.1157-2.0599-1.1024-2.0578-1.0691 0.12541 1.9969 4.35 6.11 15.08 12.44 15.08 8.9zm3.7003-1.1816c0.43983-0.769 4.6247-5.4313 9.2997-10.361 4.675-4.9294 9.8142-10.488 11.42-12.352 1.6062-1.8641 4.4693-5.1893 6.3625-7.3893s7.1591-8.0508 11.702-13.002c4.543-4.951 10.391-11.618 12.996-14.816l4.736-5.8139-3.3688 0.632c-7.2304 1.3564-10.827-2.803-10.842-12.539l-0.006-3.5381-9.25 9.0381c-12.784 12.491-35.943 33.999-43.688 40.573-10.642 9.0338-10.489 8.8406-7.8272 9.8701 12.264 4.7439 14.876 7.3944 15.574 15.804 0.43756 5.2764 1.3766 6.5404 2.8913 3.8919zm23.3-56.9c0-1.8551 2.0943-3.7 4.2-3.7 2.3022 0 2.2915 1.2452-0.0287 3.345-2.19 1.99-4.17 2.16-4.17 0.36zm10.564-8.5958c-1.3513-2.1864 3.1962-5.7127 5.0352-3.9044 1.4305 1.4067 1.5068 1.9671 0.44207 3.25-1.4071 1.6954-4.5982 2.0766-5.4773 0.65435zm4.2064-2.9167c0.59996-1.7999-1.467-1.4216-2.1645 0.39606-0.37373 0.97391-0.15024 1.4311 0.58051 1.1875 0.6535-0.21783 1.3663-0.93044 1.584-1.5836zm-95.613 61.32c-0.346-4.35-2.157-6.5-2.157-2.57 0 1.86 1.647 7.07 2.232 7.07 0.15508 0 0.1209-2.025-0.07594-4.5zm36.423-11.25c-1.1537-1.1537-1.7456 0.65318-0.95886 2.9272l0.80455 2.3254 0.36756-2.3359c0.20215-1.2847 0.10619-2.5972-0.21325-2.9167zm-30.019-37.342 8.4641-5.0941-5.7627-3.744c-3.1695-2.0592-6.0376-3.3291-6.3736-2.822-0.33596 0.5071-0.89846 0.17247-1.25-0.74363-0.937-2.45-0.75-3.23 0.362-1.51 0.70439 1.09 0.97356 1.1422 0.98469 0.19098 0.0084-0.71996 0.46016-1.0341 1.0039-0.69806 0.56686 0.35034 0.73451-0.0511 0.39301-0.94098-0.328-0.85-0.943-1.55-1.368-1.55-1.0406 0-2.4516-3.6455-5.9388-15.344-3.2885-11.032-7.0882-17.378-10.974-18.328-1.4307-0.34964-2.869-1.0425-3.1962-1.5397-1.1436-1.7379-6.1049 0.49213-7.9966 3.5942-3.4868 5.7182-2.4336 9.6115 6.1185 22.618 2.7124 4.125 7.5284 12.758 10.702 19.184 6.8421 13.853 4.6403 12.856 14.832 6.7218zm20.874-9.89c4.2469-1.6147 3.2314-4.6506-3.8155-11.407-4.6279-4.4372-6.8648-7.4911-8.1434-11.118-3.0832-8.7453-7.0701-10.55-12.37-5.5988-3.9615 3.7006-3.9188 5.978 0.27395 14.627 6.0945 12.572 14.332 17.193 24.055 13.497zm17.714-10.509c11.17-1.73 10.96-10.51-0.25-10.51-1.694 0-4.3193-1.903-8.429-6.11-8.83-9.04-15.683-11.21-20.955-6.64l-2.5963 2.25 2.427 5c2.869 5.9105 3.8613 6.8506 13.543 12.83 5.1744 3.1959 8.1718 4.4423 10 4.1585 1.4359-0.22291 4.2526-0.66095 6.2593-0.97344zm83.85-17.1c0-1.24-6.39-9.41-7.37-9.41-4.0488 0-9.0209 8.5926-5.3781 9.2943 3.5419 0.6822 12.75 0.76829 12.75 0.11921zm-49.886-8.9857c5.1434-3.2469 4.7437-3.6168-2.0144-1.8638-6.2554 1.6226-7.0927 2.1964-5.071 3.475 2.1193 1.3403 2.5734 1.237 7.0854-1.6112zm-29.6-35.39c-0.34461-1.0858 0.15574-3.6228 1.1119-5.6377l1.7385-3.6636 1.823 2.2512c1.7337 2.141 1.9452 2.1711 4.3207 0.61465 3.0004-1.966 3.1496-3.1713 0.5635-4.5553-6.8626-3.6728-13.908 2.99-11.066 10.465 1.1205 2.947 2.4204 3.3999 1.508 0.52542zm177.81-18.152c3.0671-1.5757 7.7016-6.0408 7.1673-6.9052-0.46822-0.7576-12.726 3.2103-14.787 4.7867-0.74914 0.57297-2.1306 0.42069-3.6962-0.40744-1.8537-0.98052-2.0476-1.3262-0.75-1.3371 0.9625-0.0081 1.75-0.49604 1.75-1.0843 0-1.4179-4.235-0.75966-4.7267 0.73469-0.21086 0.64083 0.6539 1.489 1.9217 1.8848s2.5589 1.1126 2.8691 1.593c0.31023 0.48034 2.7642 0.21119 5.4533-0.59811s5.0759-1.2849 5.304-1.0568c0.22806 0.22806-0.76033 0.70956-2.1964 1.07s-2.3626 1.0573-2.059 1.5487c0.71115 1.1507 1.1123 1.1262 3.7498-0.22886zm-6.82-3.878c0.33992-0.55-0.0835-1-0.94098-1-0.86 0-1.56 0.45-1.56 1s0.42344 1 0.94098 1 1.2191-0.45 1.559-1z"/>
</svg>
